<?xml version="1.0" encoding="UTF-8"?>
<svg version="1.1" xmlns="http://www.w3.org/2000/svg" width="1150" height="1150">
<path d="M0 0 C379.5 0 759 0 1150 0 C1150 379.5 1150 759 1150 1150 C770.5 1150 391 1150 0 1150 C0 770.5 0 391 0 0 Z " fill="#000000" transform="translate(0,0)"/>
<path d="M0 0 C3.77060972 1.455182 4.90938341 3.11524775 6.6875 6.6875 C9.02914058 11.19559608 11.49300648 15.59372121 14.125 19.9375 C14.50479004 20.56648193 14.88458008 21.19546387 15.27587891 21.84350586 C16.08837636 23.18822064 16.90155073 24.53252661 17.71533203 25.87646484 C20.00589598 29.66272961 22.28457638 33.45612088 24.5625 37.25 C25.05830566 38.07556396 25.55411133 38.90112793 26.06494141 39.75170898 C30.75216418 47.5669176 35.39529609 55.40810348 40.03607178 63.25094604 C44.870161 71.41969202 49.73289656 79.57046018 54.6262207 87.70385742 C58.89875351 94.81312543 63.12153212 101.95134768 67.32763672 109.10009766 C69.79587075 113.29105523 72.27653013 117.47156349 74.8203125 121.6171875 C75.45706909 122.65879028 75.45706909 122.65879028 76.10668945 123.72143555 C76.8859703 124.99204674 77.67060912 126.25939425 78.46166992 127.52270508 C80.14158359 130.26609799 81 131.71437548 81 135 C81.66 135 82.32 135 83 135 C84.27416992 136.80639648 84.27416992 136.80639648 85.73046875 139.37109375 C86.27791748 140.32435547 86.82536621 141.27761719 87.3894043 142.25976562 C88.27946167 143.83274414 88.27946167 143.83274414 89.1875 145.4375 C90.46733604 147.66617716 91.74862985 149.8940177 93.03125 152.12109375 C93.52578926 152.98219254 93.52578926 152.98219254 94.03031921 153.86068726 C97.34192437 159.61880212 100.75632705 165.31261167 104.1875 171 C110.91041546 182.16380586 117.5714938 193.3633706 124.21557617 204.57421875 C128.43359227 211.68945292 132.67088897 218.7925189 136.93121338 225.88250732 C139.52285914 230.19788883 142.08702431 234.52792147 144.625 238.875 C148.76880131 245.9430056 152.96978217 252.97588594 157.1875 260 C157.82655273 261.06428223 158.46560547 262.12856445 159.12402344 263.22509766 C162.31234086 268.53233426 165.50419965 273.83742056 168.69921875 279.140625 C175.69359312 290.76068674 182.6037778 302.425115 189.44064331 314.13818359 C195.54957961 324.59716621 201.79998187 334.96465225 208.10571289 345.3059082 C216.634062 359.29594986 216.634062 359.29594986 220.44238281 365.984375 C222.57124771 369.70021192 224.83591263 373.23330579 227.3046875 376.734375 C235.17689038 388.17298401 237.43024907 395.7660051 235.47216797 409.43701172 C234.88918918 413.83618048 234.47410783 418.24181738 234.06640625 422.66015625 C232.85952992 435.57958983 231.60433294 448.49206348 229.953125 461.36328125 C229.03935474 468.52300828 228.32914049 475.68640233 227.6875 482.875 C227.43482719 485.64737136 227.17887269 488.41943269 226.921875 491.19140625 C226.85250229 491.93990341 226.78312958 492.68840057 226.71165466 493.45957947 C225.67377674 504.58241799 224.55114025 515.69704569 223.4375 526.8125 C223.33158539 527.87200867 223.22567078 528.93151733 223.11654663 530.02313232 C222.60786456 535.10975592 222.09519566 540.19589557 221.57397461 545.28125 C221.19114654 549.0344819 220.83673344 552.78869948 220.50610352 556.546875 C220.42566299 557.41487228 220.34522247 558.28286957 220.26234436 559.1771698 C220.11362644 560.78512028 219.97385203 562.39393614 219.84519958 564.00361633 C219.23626425 570.38868682 217.08065959 574.24442216 213 579 C211.98605617 580.65822064 210.98636789 582.32522952 210 584 C208.99354956 585.4682964 207.97193486 586.92628287 206.9375 588.375 C203.91141124 592.66515116 200.96929856 597.00372021 198.0625 601.375 C197.42272217 602.33708374 197.42272217 602.33708374 196.77001953 603.31860352 C194.78718792 606.3033939 192.80760183 609.29032745 190.828125 612.27734375 C187.80831378 616.82461763 184.77214858 621.35220551 181.625 625.8125 C177.50530279 631.66041485 173.56077776 637.62206879 169.60644531 643.58227539 C166.2031897 648.70422682 162.78880739 653.81878153 159.37698364 658.93502808 C157.08174168 662.37705169 154.78698972 665.81940195 152.4921875 669.26171875 C151.5585961 670.66211094 150.62500234 672.06250156 149.69140625 673.46289062 C149.22750488 674.15874268 148.76360352 674.85459473 148.28564453 675.5715332 C147.34163411 676.98754883 146.3976237 678.40356445 145.45361328 679.81958008 C144.51315386 681.23026921 143.57270372 682.64096454 142.63226318 684.05166626 C141.70676053 685.43987961 140.78118292 686.82804299 139.85552979 688.21615601 C137.91856366 691.12099248 135.98246669 694.02637898 134.04980469 696.93408203 C126.60944499 708.12251794 119.07214129 719.24595985 111.55419922 730.38232422 C104.67663598 740.57098509 97.80251516 750.76102667 91 761 C83.07313148 772.92734216 75.06574594 784.79893201 67.03710938 796.65795898 C60.65531678 806.08605424 54.29507724 815.52734985 47.99795532 825.01228333 C44.41566248 830.40210039 40.7593483 835.73161752 37 841 C31.30702715 836.27103722 26.07816019 831.19674733 20.875 825.9375 C20.08996094 825.14794922 19.30492187 824.35839844 18.49609375 823.54492188 C17.03251348 822.07270328 15.56997257 820.59945004 14.10888672 819.12475586 C12.60495133 817.60950353 11.09215495 816.10302461 9.57348633 814.60253906 C7.34997741 812.35392839 5.19871392 810.05834601 3.07316589 807.717453 C-4.45113683 799.43322199 -12.35979013 791.55760474 -20.3125 783.6875 C-35.02376324 769.12699266 -35.02376324 769.12699266 -40.17651367 763.04614258 C-44.70002705 757.97028696 -49.66404103 753.2767604 -54.5 748.5 C-56.70097054 746.32597227 -58.89835788 744.14840934 -61.09375 741.96875 C-61.5825061 741.48829224 -62.07126221 741.00783447 -62.5748291 740.51281738 C-65.30574613 737.80079624 -67.88754952 735.00935187 -70.40258789 732.09521484 C-73.91383198 728.04232383 -77.64068726 724.26384814 -81.46484375 720.5078125 C-82.85494379 719.13033556 -84.24491418 717.75272777 -85.63476562 716.375 C-87.80129119 714.23346234 -89.96940629 712.09357827 -92.13989258 709.95605469 C-94.25251779 707.8734444 -96.35903353 705.78481011 -98.46484375 703.6953125 C-99.12097153 703.05264435 -99.7770993 702.4099762 -100.45310974 701.74783325 C-101.05115921 701.15316254 -101.64920868 700.55849182 -102.26538086 699.94580078 C-102.7949791 699.42365997 -103.32457733 698.90151917 -103.870224 698.36355591 C-105 697 -105 697 -105 695 C-105.99 694.67 -106.98 694.34 -108 694 C-109.40454102 692.56982422 -109.40454102 692.56982422 -110.94140625 690.6796875 C-114.01752192 687.05360209 -117.26799798 683.65680631 -120.65234375 680.3203125 C-121.15996246 679.81836365 -121.66758118 679.31641479 -122.19058228 678.79925537 C-124.29853909 676.71813555 -126.41036695 674.64104148 -128.52709961 672.56884766 C-137.83499361 663.44357417 -146.08553467 654.29569071 -152.4375 642.8125 C-153.37923521 641.14918824 -154.32195623 639.48643428 -155.265625 637.82421875 C-155.72517578 637.01001465 -156.18472656 636.19581055 -156.65820312 635.35693359 C-158.61737665 631.91554691 -160.64342853 628.51646269 -162.6875 625.125 C-163.05133789 624.51986572 -163.41517578 623.91473145 -163.79003906 623.29125977 C-165.55009053 620.37275857 -167.32659756 617.46534226 -169.125 614.5703125 C-172.74857225 608.7369102 -176.19448241 602.87489119 -179.43359375 596.8203125 C-181.84990343 592.46974993 -184.50469507 588.27169773 -187.1328125 584.046875 C-189.05257006 580.91421622 -190.83408957 577.73363882 -192.58984375 574.5078125 C-194.48975556 571.12902198 -196.49572218 567.81765011 -198.5 564.5 C-200.87128267 560.57220277 -203.23621411 556.65155142 -205.4375 552.625 C-212.54581523 539.64874669 -220.34578454 527.03299423 -227.89038086 514.30761719 C-232.22321252 506.99947643 -236.55249773 499.68925665 -240.875 492.375 C-241.40569092 491.47724854 -241.93638184 490.57949707 -242.4831543 489.65454102 C-244.87597559 485.60449018 -247.26467006 481.55215892 -249.640625 477.4921875 C-250.05610596 476.78312256 -250.47158691 476.07405762 -250.8996582 475.34350586 C-251.70483401 473.96785682 -252.50811604 472.59109727 -253.30932617 471.21313477 C-255.49496863 467.47537591 -257.75285029 463.80049097 -260.09765625 460.16015625 C-260.86988525 458.94634277 -260.86988525 458.94634277 -261.65771484 457.70800781 C-262.65274312 456.14988182 -263.66154065 454.60043503 -264.68603516 453.06152344 C-265.13382324 452.35672852 -265.58161133 451.65193359 -266.04296875 450.92578125 C-266.44539795 450.31130127 -266.84782715 449.69682129 -267.26245117 449.0637207 C-268.34237024 446.04202064 -267.81442052 444.0782826 -267 441 C-265.59570313 438.19287109 -265.59570313 438.19287109 -263.78125 435.2734375 C-263.10521729 434.17402832 -262.42918457 433.07461914 -261.73266602 431.94189453 C-260.9885025 430.75289308 -260.2442788 429.56392929 -259.5 428.375 C-258.72804775 427.12547763 -257.95715149 425.87530233 -257.18725586 424.62451172 C-255.58844532 422.02899101 -253.98514564 419.4363298 -252.37841797 416.84570312 C-249.08557201 411.53004459 -245.8417761 406.18479896 -242.60076904 400.83743286 C-241.55869456 399.11872362 -240.51510291 397.40094359 -239.47119141 395.68334961 C-235.68650631 389.4528969 -231.92130231 383.21111059 -228.17578125 376.95703125 C-227.57223564 375.94947784 -227.57223564 375.94947784 -226.95649719 374.92156982 C-225.01872864 371.68567878 -223.08306344 368.44855535 -221.15063477 365.20947266 C-217.41948948 358.96525776 -213.60694958 352.78677857 -209.67919922 346.66430664 C-206.21256745 341.16396461 -202.98380712 335.51988019 -199.71875 329.8984375 C-195.17731071 322.14105077 -195.17731071 322.14105077 -192.4765625 318.515625 C-189.77145706 314.84569318 -187.69861716 310.88838121 -185.55322266 306.87304688 C-183.05786627 302.25730435 -180.37019477 297.75860845 -177.6875 293.25 C-177.11918457 292.2919043 -176.55086914 291.33380859 -175.96533203 290.34667969 C-174.31274922 287.56293969 -172.65709702 284.78105465 -171 282 C-170.35877197 280.92298828 -170.35877197 280.92298828 -169.70458984 279.82421875 C-164.53149137 271.14367688 -159.27154527 262.51705306 -153.99609375 253.8984375 C-148.96038657 245.66972143 -143.94865185 237.42638842 -138.93603516 229.18359375 C-137.61041914 227.00376616 -136.28456095 224.82408583 -134.95849609 222.64453125 C-126.82121472 209.26928761 -118.71344479 195.87758072 -110.67089844 182.44506836 C-105.55562164 173.90856135 -100.3947611 165.40032525 -95.22390747 156.89743042 C-90.10716017 148.48296328 -85.02103656 140.0508954 -79.96411133 131.6003418 C-76.7255811 126.19379081 -73.4352702 120.82149732 -70.12109375 115.4609375 C-64.93257977 107.0286527 -59.88999887 98.50566027 -54.80908203 90.00830078 C-49.30668098 80.80630784 -43.74341291 71.64246226 -38.16381836 62.48706055 C-33.40741593 54.67882133 -28.6904454 46.84797988 -24 39 C-19.00425256 30.64323922 -13.97814546 22.30951436 -8.859375 14.02734375 C-6.5796244 10.31556494 -4.34774305 6.57656864 -2.12890625 2.828125 C-1 1 -1 1 0 0 Z " fill="#B5B5B6" transform="translate(591,155)"/>
<path d="M0 0 C0.99 0.495 0.99 0.495 2 1 C2.65980098 3.23362428 3.20371674 5.50162573 3.69921875 7.77734375 C3.85481766 8.48202286 4.01041656 9.18670197 4.17073059 9.91273499 C4.68479303 12.25256097 5.18627151 14.59489398 5.6875 16.9375 C6.04504378 18.57889139 6.40312379 20.22016606 6.76171875 21.86132812 C9.24082056 33.25670951 11.60327497 44.67573167 13.92788696 56.10348511 C16.13057425 66.92872171 18.45806882 77.72063476 20.875 88.5 C24.85183756 106.23824397 28.67061282 124.00851886 32.46113586 141.78741455 C33.51026081 146.70814569 34.56312762 151.62803692 35.62109375 156.546875 C38.21339107 168.59937422 40.77369898 180.6582042 43.30792236 192.72302246 C46.40943295 207.48736836 49.53113872 222.2472737 52.6875 237 C52.97685928 238.35245819 52.97685928 238.35245819 53.27206421 239.73223877 C55.50518862 250.1583571 57.78543644 260.56954219 60.19482422 270.95654297 C62.03709914 278.98460419 63.66933344 287.05448202 65.3125 295.125 C67.82536288 307.46319675 70.45021975 319.77209382 73.1875 332.0625 C73.3498111 332.79269348 73.51212219 333.52288696 73.67935181 334.27520752 C75.12053251 340.75030573 76.57112334 347.22233028 78.10986328 353.67504883 C78.29309647 354.44445297 78.47632965 355.21385712 78.66511536 356.00657654 C79.01669151 357.47723696 79.3707796 358.94730002 79.72782898 360.41664124 C80.53728841 363.79712594 81.23290034 367.09416472 81.5 370.5625 C82.15060288 378.5556211 84.78839321 386.47850376 86.859375 394.20703125 C88.83626371 401.7413979 90.02851979 409.27387503 91 417 C82.15414441 423.36599428 73.01500515 429.28666535 63.90332031 435.26147461 C47.69219116 445.8956744 31.55357913 456.62951037 15.5 467.5 C-0.865404 478.58036513 -17.32312787 489.51102782 -33.85571289 500.34033203 C-42.90588502 506.27588897 -51.90462325 512.27227921 -60.81640625 518.4140625 C-61.67854736 519.00606445 -62.54068848 519.59806641 -63.42895508 520.20800781 C-67.51331429 523.012718 -71.58740659 525.83014099 -75.64404297 528.67480469 C-77.08384759 529.66668704 -78.52408877 530.6579361 -79.96484375 531.6484375 C-80.60853409 532.10828033 -81.25222443 532.56812317 -81.91542053 533.04190063 C-84.61401836 534.87722156 -86.40890552 536.00699897 -89.72167969 535.96777344 C-92.23030727 534.90217124 -93.61282283 533.83555552 -95.48828125 531.8671875 C-96.41821899 530.91005859 -96.41821899 530.91005859 -97.36694336 529.93359375 C-98.3299939 528.91458984 -98.3299939 528.91458984 -99.3125 527.875 C-100.65187548 526.49567455 -101.99300111 525.11804623 -103.3359375 523.7421875 C-104.29064941 522.75943848 -104.29064941 522.75943848 -105.26464844 521.75683594 C-108.3448221 518.63852844 -111.64085613 515.80919554 -115 513 C-116.3991302 511.79548565 -117.79490963 510.58706939 -119.1875 509.375 C-120.10595703 508.58222656 -120.10595703 508.58222656 -121.04296875 507.7734375 C-123.93525413 505.15248428 -126.65208406 502.3651515 -129.39379883 499.58837891 C-136.46309207 492.36098728 -136.46309207 492.36098728 -143.9375 485.5625 C-148.2762681 481.87590581 -152.21401578 477.81203903 -156.21362305 473.7668457 C-159.71686393 470.23912447 -163.30809267 466.90041596 -167.09765625 463.6796875 C-171.78176901 459.54381792 -176.07739625 454.97190128 -180.4375 450.5 C-182.84057967 448.15553203 -185.30755118 445.92215799 -187.8125 443.6875 C-191.6209383 440.28529512 -195.27563146 436.79254802 -198.8203125 433.1171875 C-200.7428845 431.24974301 -202.71245198 429.50621816 -204.7421875 427.7578125 C-209.75077783 423.4066937 -214.35700194 418.69461911 -219 413.9609375 C-222.29552943 410.62678858 -225.62093757 407.41962647 -229.1875 404.375 C-232.5405052 401.49816122 -235.28382588 398.48009809 -238 395 C-235.77701359 391.10061757 -233.54740986 387.20505897 -231.3125 383.3125 C-230.97697113 382.72809143 -230.64144226 382.14368286 -230.29574585 381.54156494 C-225.11402016 372.53079332 -219.77896866 363.63398698 -214.21411133 354.8527832 C-211.16719749 350.01710932 -208.47148622 345.15531971 -206 340 C-205.34 340 -204.68 340 -204 340 C-203.7525 338.9275 -203.505 337.855 -203.25 336.75 C-201.94428127 332.83284382 -200.86461573 331.7778092 -198 329 C-197.28305399 327.37057725 -196.57101509 325.73809905 -195.91796875 324.08203125 C-194.05322642 319.85263694 -191.70617435 315.74643078 -189 312 C-188.34 312 -187.68 312 -187 312 C-186.7525 310.948125 -186.505 309.89625 -186.25 308.8125 C-185.21980596 305.15531115 -183.45186172 302.91158579 -181 300 C-179.75983331 297.3205355 -179.75983331 297.3205355 -179 295 C-178.34 295 -177.68 295 -177 295 C-176.690625 294.05125 -176.38125 293.1025 -176.0625 292.125 C-175 289 -175 289 -174 287 C-173.34 287 -172.68 287 -172 287 C-171.7525 286.154375 -171.505 285.30875 -171.25 284.4375 C-169.29025673 279.048206 -166.56866638 274.66710075 -163.0625 270.1875 C-160.21539927 266.48913046 -158.22347233 262.63952827 -156.2109375 258.44140625 C-153.25499451 252.48184378 -149.39191438 247.03485297 -145.625 241.56640625 C-143.72895574 238.57193251 -142.03891849 235.4891272 -140.33007812 232.38500977 C-138.22033982 228.60196397 -135.98754716 224.8959447 -133.75 221.1875 C-133.24041748 220.34058594 -132.73083496 219.49367188 -132.20581055 218.62109375 C-124.4703013 205.78017133 -116.67312865 192.9764158 -108.88562012 180.16699219 C-99.17389703 164.19201178 -89.48948604 148.20175641 -79.89697266 132.15478516 C-74.16430198 122.56603369 -68.36916516 113.01572958 -62.56704712 103.46890259 C-55.60004217 92.00384277 -48.68540154 80.50806469 -41.80029297 68.99365234 C-37.46482126 61.74450761 -33.0998997 54.51512805 -28.6875 47.3125 C-22.26125574 36.82161947 -15.94460987 26.26566907 -9.62890625 15.70800781 C-8.7725774 14.27676975 -7.91598352 12.84569021 -7.05908203 11.41479492 C-6.29372867 10.13673372 -5.52903427 8.85827757 -4.76513672 7.5793457 C-3.22764077 5.01183755 -1.66059558 2.49089338 0 0 Z " fill="#000000" transform="translate(583,201)"/>
<path d="M0 0 C3.33440485 1.20216673 5.94989539 3.02986008 8.7578125 5.13671875 C9.65753784 5.79559082 9.65753784 5.79559082 10.57543945 6.46777344 C11.89414536 7.43539205 13.20985227 8.4071076 14.52294922 9.38232422 C16.71139867 11.00758094 18.907556 12.62194277 21.10546875 14.234375 C25.13508389 17.19350495 29.15711101 20.16277409 33.17724609 23.13476562 C37.15930462 26.0771656 41.14625188 29.01292315 45.1328125 31.94921875 C46.71617039 33.11585209 48.2995037 34.28251879 49.8828125 35.44921875 C51.0584375 36.31546875 51.0584375 36.31546875 52.2578125 37.19921875 C59.3828125 42.44921875 59.3828125 42.44921875 61.75976562 44.20068359 C63.33655579 45.3625119 64.91337849 46.52429605 66.49023438 47.68603516 C70.54895177 50.67635982 74.60702993 53.66754605 78.6640625 56.66015625 C86.19945993 62.21742916 93.73992191 67.76593557 101.3203125 73.26171875 C104.78408955 75.78933984 108.21310566 78.3623918 111.6328125 80.94921875 C111.10250112 85.45686545 109.38060134 88.36876663 106.6328125 91.94921875 C105.9728125 91.94921875 105.3128125 91.94921875 104.6328125 91.94921875 C104.3646875 92.67238281 104.0965625 93.39554688 103.8203125 94.140625 C100.72727112 101.45607483 95.70330977 107.91670317 91.0703125 114.32421875 C84.98952727 122.7366366 79.28544711 131.39412786 73.55517578 140.04736328 C70.19238364 145.12358216 66.82003806 150.19342761 63.4453125 155.26171875 C62.43488892 156.77971069 62.43488892 156.77971069 61.40405273 158.32836914 C57.06852134 164.82981185 52.67166023 171.28461474 48.22192383 177.70825195 C45.19671438 182.08889366 42.325094 186.54839764 39.49609375 191.05859375 C36.72317585 195.3603951 33.80239459 199.55708371 30.890625 203.765625 C27.75863173 208.29720109 24.67578186 212.85744355 21.6328125 217.44921875 C18.16837004 222.67688879 14.64011592 227.85547385 11.0703125 233.01171875 C7.18242877 238.63103212 3.43030326 244.31911444 -0.23681641 250.08447266 C-2.88599114 254.23726521 -5.66220699 258.27626567 -8.51171875 262.29296875 C-10.72242428 265.45776825 -12.859609 268.66909981 -14.9921875 271.88671875 C-18.94009851 277.83963798 -22.95079818 283.74688784 -26.9921875 289.63671875 C-31.84049887 296.70462904 -36.63605179 303.80218396 -41.3671875 310.94921875 C-45.60923133 317.35200401 -49.84922917 323.73702605 -54.3671875 329.94921875 C-57.37615793 327.14630313 -59.46580069 324.4007647 -61.50390625 320.8359375 C-62.0767334 319.84247314 -62.64956055 318.84900879 -63.23974609 317.82543945 C-63.83867676 316.77316162 -64.43760742 315.72088379 -65.0546875 314.63671875 C-66.31052722 312.45664475 -67.56703669 310.27695643 -68.82421875 308.09765625 C-69.43217285 307.04030273 -70.04012695 305.98294922 -70.66650391 304.89355469 C-72.82249016 301.16096866 -75.01824311 297.45412641 -77.2421875 293.76171875 C-77.59410156 293.17640381 -77.94601562 292.59108887 -78.30859375 291.98803711 C-80.01442235 289.16035365 -81.73796888 286.34423848 -83.48046875 283.5390625 C-84.16496094 282.43691406 -84.84945312 281.33476563 -85.5546875 280.19921875 C-86.14636719 279.255625 -86.73804688 278.31203125 -87.34765625 277.33984375 C-89.58189582 273.58874134 -91.65628397 269.76791996 -93.73608398 265.9296875 C-96.51570516 260.85056531 -99.40902523 255.83783357 -102.3046875 250.82421875 C-102.954375 249.69822266 -103.6040625 248.57222656 -104.2734375 247.41210938 C-109.33060072 238.66728788 -114.51545913 230.00214753 -119.7355957 221.35375977 C-124.89035206 212.79384187 -129.89601087 204.15338522 -134.87182617 195.48852539 C-140.47343517 185.73997453 -146.18459468 176.05887706 -151.92089844 166.38916016 C-155.75531612 159.92036031 -159.56432534 153.43660737 -163.3671875 146.94921875 C-163.94742676 145.95937988 -164.52766602 144.96954102 -165.12548828 143.94970703 C-167.04107064 140.67969237 -168.95444414 137.40839473 -170.8671875 134.13671875 C-171.47941162 133.0914502 -172.09163574 132.04618164 -172.72241211 130.96923828 C-173.58298218 129.49559814 -173.58298218 129.49559814 -174.4609375 127.9921875 C-174.97333984 127.1158667 -175.48574219 126.2395459 -176.01367188 125.33666992 C-177.20500559 123.23528963 -178.2967125 121.11352607 -179.3671875 118.94921875 C-173.57340099 115.0381818 -167.77906197 111.12796439 -161.984375 107.21826172 C-160.02168878 105.89389692 -158.05911963 104.5693586 -156.09667969 103.24462891 C-142.53273932 94.08862208 -128.94115038 84.97600019 -115.3112793 75.91845703 C-106.38695511 69.98142964 -97.50799308 63.97743802 -88.62512207 57.97866821 C-72.10785643 46.82567143 -55.56873935 35.7077266 -38.96875 24.67822266 C-34.77592024 21.89165918 -30.58806769 19.0976433 -26.40014648 16.30371094 C-23.36153702 14.27707851 -20.32062463 12.25398747 -17.27734375 10.234375 C-16.5925293 9.77933594 -15.90771484 9.32429687 -15.20214844 8.85546875 C-13.89745434 7.9886126 -12.59215957 7.12265952 -11.28613281 6.2578125 C-8.83575215 4.62872068 -6.47197202 3.04083258 -4.25390625 1.1015625 C-2.3671875 -0.05078125 -2.3671875 -0.05078125 0 0 Z " fill="#000000" transform="translate(683.3671875,633.05078125)"/>
<path d="M0 0 C4.46692598 3.76830722 6.8453902 8.71363736 9.625 13.75 C13.35932976 20.40871521 17.15396317 26.9943231 21.25 33.4375 C24.3837597 38.36916583 27.38667607 43.34378294 30.25 48.4375 C32.81875529 52.99729855 35.52446817 57.35830574 38.48657227 61.66894531 C40.03691662 64.05686077 41.38538187 66.48698853 42.72265625 69 C46.08114804 75.21010966 49.66926367 81.26607964 53.3125 87.3125 C53.97113037 88.40900879 54.62976074 89.50551758 55.30834961 90.63525391 C58.8077228 96.43961632 62.35389106 102.20204735 66.0625 107.875 C69.08962362 112.51433471 71.81927358 117.21591282 74.41796875 122.10546875 C77.38986901 127.54294553 80.6472721 132.81415428 83.85742188 138.11328125 C85.59861828 140.98848762 87.33116472 143.86884663 89.0625 146.75 C89.41401123 147.33458984 89.76552246 147.91917969 90.12768555 148.52148438 C92.72958189 152.8577941 95.30761724 157.20798881 97.87890625 161.5625 C98.58390102 162.75553502 99.28889779 163.94856886 99.99389648 165.14160156 C101.38224075 167.49128374 102.76806343 169.84239481 104.15258789 172.19433594 C107.81907423 178.40173212 111.58214657 184.52583696 115.47705078 190.59228516 C117.38777819 193.61306004 119.14078636 196.68706164 120.875 199.8125 C124.25092419 205.82947038 127.91318547 211.60705095 131.7265625 217.35546875 C134.16335761 221.14349321 136.2514515 225.10841149 138.38867188 229.07055664 C141.1020679 234.00359285 144.02352802 238.80862613 146.9375 243.625 C148.26178213 245.82287848 149.58599894 248.02079632 150.91015625 250.21875 C151.92166748 251.89517578 151.92166748 251.89517578 152.95361328 253.60546875 C156.26989338 259.10648981 159.57189824 264.61605973 162.875 270.125 C164.12883566 272.2148861 165.38273944 274.30473134 166.63671875 276.39453125 C181.89453125 301.82421875 181.89453125 301.82421875 183.43652344 304.39428711 C184.47223484 306.12041887 185.5080409 307.84649383 186.54394531 309.57250977 C188.89480072 313.48972249 191.2445978 317.40755086 193.58984375 321.328125 C193.98631104 321.98989746 194.38277832 322.65166992 194.79125977 323.33349609 C195.54287242 324.59018605 196.29214393 325.84827984 197.03881836 327.10791016 C198.93326679 330.29079553 200.93548415 333.34489363 203.0625 336.375 C207.38650137 343.38324352 204.61081698 354.06704023 203.79296875 361.87109375 C203.6669075 363.10626236 203.54084625 364.34143097 203.41096497 365.61402893 C203.07512978 368.89391991 202.735211 372.1733545 202.39349365 375.45263672 C202.05697199 378.69520986 201.72726849 381.93847794 201.39648438 385.18164062 C200.05240653 398.28778999 198.62826689 411.38130034 197.09506226 424.46662903 C195.71165326 436.34025198 194.50959464 448.23140161 193.3125 460.125 C193.08545163 462.36720423 192.85823856 464.60939179 192.63085938 466.8515625 C192.08535582 472.23418582 191.54182813 477.61700552 191 483 C186.28299801 479.89353511 181.58877635 476.80191687 177.125 473.3359375 C176.29403809 472.6951123 175.46307617 472.05428711 174.60693359 471.39404297 C173.74664551 470.72775879 172.88635742 470.06147461 172 469.375 C164.87477227 463.89974582 157.67951007 458.57523758 150.31005859 453.43457031 C142.57178468 448.02815452 134.99585558 442.40610753 127.41162109 436.78662109 C116.97794504 429.05695503 106.5252247 421.35468505 96 413.75 C95.24001709 413.20077881 94.48003418 412.65155762 93.69702148 412.08569336 C90.82196973 410.01301222 87.94958392 407.96638928 85 406 C84.37317937 403.48874309 83.92589329 401.1253403 83.5625 398.57421875 C83.31524316 397.02088248 83.06513567 395.46799787 82.8125 393.91552734 C82.68230469 393.10597595 82.55210937 392.29642456 82.41796875 391.46234131 C81.73844605 387.45913098 80.90549542 383.49102724 80.0625 379.51953125 C79.89443848 378.72376678 79.72637695 377.92800232 79.55322266 377.10812378 C79.03781369 374.67574712 78.51899111 372.24411455 78 369.8125 C77.65338608 368.17778943 77.30703132 366.54302389 76.9609375 364.90820312 C76.29222202 361.75143302 75.62013409 358.59541151 74.9453125 355.43994141 C74.32634369 352.54309489 73.71714562 349.64449386 73.1171875 346.74365234 C72.85164062 345.47086426 72.58609375 344.19807617 72.3125 342.88671875 C72.08175781 341.76869873 71.85101562 340.65067871 71.61328125 339.4987793 C71.2470421 337.07431501 71.2470421 337.07431501 70 336 C69.64615932 334.19511516 69.34269203 332.38027472 69.0625 330.5625 C67.66837922 321.5768644 65.7405086 312.72941685 63.6875 303.875 C61.18096104 292.95178671 58.87908183 281.991443 56.62060547 271.01464844 C55.6071844 266.09186191 54.58582109 261.17073697 53.5625 256.25 C53.25590454 254.77418457 53.25590454 254.77418457 52.94311523 253.26855469 C51.59478647 246.79782944 50.21360216 240.33472971 48.81811523 233.87402344 C46.2190594 221.83858945 43.71831424 209.78886154 41.35571289 197.70458984 C39.45800479 188.07113851 37.39961319 178.47451083 35.33509827 168.87562561 C33.71591221 161.34628776 32.10976535 153.81449414 30.52734375 146.27734375 C30.32265472 145.30266647 30.1179657 144.3279892 29.90707397 143.32377625 C29.47686505 141.27431816 29.04678415 139.2248332 28.61682129 137.17532349 C24.52968466 117.69495805 20.41340398 98.22093074 16.27369881 78.75166893 C15.55177589 75.35624062 14.83010325 71.96075921 14.10850525 68.56526184 C13.62515846 66.29098386 13.14180579 64.01670713 12.65844727 61.74243164 C12.41856929 60.61376584 12.17869131 59.48510004 11.9315443 58.32223225 C10.47919576 51.48976943 9.02495098 44.6577132 7.56949139 37.82591248 C6.65290912 33.52155287 5.73797783 29.2168435 4.82346153 24.91204453 C4.39094937 22.87795522 3.95770911 20.84402058 3.52372169 18.81024551 C2.9264016 16.01068629 2.33155211 13.21061318 1.73730469 10.41040039 C1.55976623 9.58129622 1.38222776 8.75219206 1.19930935 7.89796352 C0 2.22805127 0 2.22805127 0 0 Z " fill="#000000" transform="translate(606,212)"/>
<path d="M0 0 C4.47090742 3.0682698 8.1765802 6.13362043 12 10 C15.47644617 13.30875287 18.99043311 16.57786202 22.49804688 19.85351562 C26.073868 23.20484574 29.60101506 26.58517261 33.04296875 30.07421875 C36.23913832 33.29559532 39.56718251 36.29673668 43.00390625 39.2578125 C46.42474013 42.24351095 49.70542387 45.37646442 53 48.5 C54.48938645 49.90776042 55.97897485 51.31530719 57.46875 52.72265625 C58.21898437 53.43180176 58.96921875 54.14094727 59.7421875 54.87158203 C61.93675953 56.94038382 64.13849348 59.00118965 66.34375 61.05859375 C72.68338385 66.97401418 78.96881617 72.90750539 85.0546875 79.0859375 C87.63317876 81.62300721 90.35683299 83.96613738 93.1015625 86.3203125 C95.59096719 88.5228722 97.8945103 90.88352636 100.22265625 93.25390625 C102.06593574 95.06477643 103.97822799 96.75321354 105.9375 98.4375 C114.17964072 105.62145011 119.89098431 112.4907529 125.1875 122.125 C126.16563748 123.86247944 127.14379712 125.59994748 128.12400818 127.33625793 C128.78609149 128.51045921 129.44654419 129.68558142 130.10536194 130.86161804 C133.25401956 136.48088236 136.52009716 142.02664059 139.8125 147.5625 C140.88684508 149.37492512 141.96106718 151.18742315 143.03515625 153 C143.54062988 153.85207031 144.04610352 154.70414063 144.56689453 155.58203125 C146.6349926 159.07137423 148.69400844 162.56601308 150.75 166.0625 C151.33249512 167.05310425 151.33249512 167.05310425 151.92675781 168.0637207 C155.97724062 174.95607451 160.01960644 181.85319291 164.0625 188.75 C164.42483734 189.3680954 164.78717468 189.9861908 165.16049194 190.62301636 C168.8568835 196.92872148 172.55255566 203.23484493 176.24476624 209.54299927 C183.63562037 222.17003194 191.04215758 234.7873896 198.5 247.375 C199.16265869 248.49398682 199.82531738 249.61297363 200.50805664 250.76586914 C203.31890963 255.50587139 206.13709368 260.24043993 209 264.94921875 C209.43119141 265.65965332 209.86238281 266.37008789 210.30664062 267.10205078 C211.07204452 268.35945529 211.84124646 269.61456028 212.61523438 270.86669922 C215 274.78061845 215 274.78061845 215 277 C211.46470188 275.52761526 209.52595994 273.58999241 207.0625 270.6875 C202.77116577 265.66245852 198.09150608 261.08109054 193.3861084 256.44667053 C192.48929352 255.56286209 191.59247864 254.67905365 190.66848755 253.76846313 C190.19127384 253.29822849 189.71406013 252.82799385 189.22238541 252.34350967 C178.13171267 241.41350542 167.0680746 230.4564462 156.01854706 219.48485661 C149.64077194 213.15329224 143.25486658 206.83036714 136.84863281 200.52758789 C131.24025254 195.00972828 125.64860051 189.4755097 120.07535791 183.92215437 C117.13594851 180.99433086 114.18955679 178.07454985 111.2228241 175.17439461 C98.03329017 162.26957691 86.71711953 149.85074954 78.17757034 133.25282955 C76.44256228 129.93355657 74.51841811 126.74848769 72.58203125 123.54296875 C71.95280762 122.48198975 71.32358398 121.42101074 70.67529297 120.32788086 C70.06057129 119.29155518 69.44584961 118.25522949 68.8125 117.1875 C64.32039567 109.61172289 59.83510899 102.03216111 55.375 94.4375 C51.11946673 87.19487681 46.82741183 79.97847782 42.4375 72.81640625 C37.88797417 65.39390861 33.35502645 57.97026156 28.99609375 50.43359375 C25.69252388 44.75093639 22.33661063 39.09918169 18.98901367 33.44238281 C16.34349231 28.9704555 13.70172078 24.49655184 11.078125 20.01171875 C10.62993408 19.24625732 10.18174316 18.4807959 9.7199707 17.69213867 C8.89407414 16.28042628 8.06958098 14.86789144 7.24682617 13.4543457 C5.48984937 10.45289129 3.6957417 7.52115969 1.72265625 4.65625 C0 2 0 2 0 0 Z " fill="#010101" transform="translate(369,646)"/>
<path d="M0 0 C2 1 2 1 3 3 C3.66 2.67 4.32 2.34 5 2 C5.99 2.495 5.99 2.495 7 3 C7.66796875 5.109375 7.66796875 5.109375 8.1875 7.75 C8.36667969 8.61109375 8.54585937 9.4721875 8.73046875 10.359375 C9.31593237 16.09522149 7.26550497 19.52318477 4.08984375 24.20703125 C3.69104004 24.80030716 3.29223633 25.39358307 2.88134766 26.00483704 C1.57417101 27.94586646 0.25589434 29.87907653 -1.0625 31.8125 C-1.97990368 33.17050869 -2.89648015 34.52907655 -3.81225586 35.88818359 C-5.66434722 38.63533338 -7.52017827 41.37989527 -9.37890625 44.12255859 C-12.97459351 49.43379152 -16.5164239 54.78057954 -20.0625 60.125 C-26.76521583 70.1957941 -33.54862513 80.21101959 -40.35571289 90.21142578 C-45.27928435 97.44662235 -50.15601971 104.71129321 -55 112 C-62.92723731 123.9270987 -70.93425176 135.7989286 -78.96289062 147.65795898 C-85.34468322 157.08605424 -91.70492276 166.52734985 -98.00204468 176.01228333 C-101.58433752 181.40210039 -105.2406517 186.73161752 -109 192 C-114.69297285 187.27103722 -119.92183981 182.19674733 -125.125 176.9375 C-125.91003906 176.14794922 -126.69507813 175.35839844 -127.50390625 174.54492188 C-128.96748652 173.07270328 -130.43002743 171.59945004 -131.89111328 170.12475586 C-133.39504867 168.60950353 -134.90784505 167.10302461 -136.42651367 165.60253906 C-138.65002259 163.35392839 -140.80128608 161.05834601 -142.92683411 158.717453 C-150.45113683 150.43322199 -158.35979013 142.55760474 -166.3125 134.6875 C-181.34591791 119.80813932 -181.34591791 119.80813932 -186.52075195 113.69750977 C-189.69553968 110.05428497 -193.24370286 106.75757556 -196.72070312 103.40625 C-198.18281122 101.97301047 -199.59617692 100.49037458 -201 99 C-201 98.34 -201 97.68 -201 97 C-199.68 97 -198.36 97 -197 97 C-196.67 98.65 -196.34 100.3 -196 102 C-194.00045254 102.04254356 -191.99958364 102.04080783 -190 102 C-189.505 101.505 -189.505 101.505 -189 101 C-188.0409375 100.5978125 -188.0409375 100.5978125 -187.0625 100.1875 C-184.83690448 99.17269471 -184.83690448 99.17269471 -184.0625 96.9375 C-183 95 -183 95 -180.796875 94.046875 C-178 94 -178 94 -175.10546875 96.23828125 C-174.11710109 97.2478756 -173.1448005 98.2734008 -172.1875 99.3125 C-171.68541016 99.82490234 -171.18332031 100.33730469 -170.66601562 100.86523438 C-167 104.69085884 -167 104.69085884 -167 107 C-166.42507813 107.23589844 -165.85015625 107.47179687 -165.2578125 107.71484375 C-162.50500395 109.28175381 -160.91439244 111.14702188 -158.875 113.5625 C-156.30529501 116.7474573 -156.30529501 116.7474573 -153 119 C-153 118.01 -153 117.02 -153 116 C-150.36 116.33 -147.72 116.66 -145 117 C-145 116.34 -145 115.68 -145 115 C-144.01 115 -143.02 115 -142 115 C-142.495 113.7315625 -142.495 113.7315625 -143 112.4375 C-144.06105954 108.79010784 -144.15109013 105.77725336 -144 102 C-140.11880746 105.43712017 -137.84082272 109.36227331 -135.3125 113.8125 C-134.42116663 115.35451001 -133.5292286 116.89617064 -132.63671875 118.4375 C-131.970354 119.59378906 -131.970354 119.59378906 -131.29052734 120.7734375 C-129.43570185 123.97359045 -127.53465835 127.14485748 -125.625 130.3125 C-124.89971567 131.51821478 -124.17445608 132.72394445 -123.44921875 133.9296875 C-123.06685059 134.56487305 -122.68448242 135.20005859 -122.29052734 135.85449219 C-119.66882872 140.21307854 -117.05387661 144.57571769 -114.4375 148.9375 C-113.39455424 150.67579505 -112.35158746 152.41407747 -111.30859375 154.15234375 C-110.5390625 155.43489583 -109.76953125 156.71744792 -109 158 C-102.80037444 150.35111133 -97.41186323 142.14885353 -91.97412109 133.95166016 C-88.86195559 129.26882544 -85.69535474 124.62639627 -82.5 120 C-78.53177506 114.253443 -74.62968517 108.46778775 -70.77172852 102.64672852 C-67.71199349 98.0405134 -64.58514461 93.48397625 -61.4375 88.9375 C-57.5481061 83.31600391 -53.79498382 77.62544482 -50.12597656 71.8581543 C-47.52063572 67.77462656 -44.79085956 63.80484922 -41.98828125 59.85546875 C-39.39327056 56.12864593 -36.88558165 52.34653001 -34.375 48.5625 C-29.4723975 41.17349967 -24.49356628 33.84052404 -19.45263672 26.54516602 C-18.94361816 25.80580811 -18.43459961 25.0664502 -17.91015625 24.3046875 C-17.42047363 23.5940918 -16.93079102 22.88349609 -16.42626953 22.15136719 C-14.54905452 19.31979946 -12.84548824 16.39483853 -11.17358398 13.43798828 C-10.78630127 12.96345215 -10.39901855 12.48891602 -10 12 C-9.01 12 -8.02 12 -7 12 C-6.67 11.34 -6.34 10.68 -6 10 C-4.02 10.99 -4.02 10.99 -2 12 C-2.19464844 11.42765625 -2.38929688 10.8553125 -2.58984375 10.265625 C-3.0808174 7.55358006 -2.61252062 6.27004948 -1.5625 3.75 C-1.27503906 3.04359375 -0.98757813 2.3371875 -0.69140625 1.609375 C-0.46324219 1.07828125 -0.23507812 0.5471875 0 0 Z " fill="#BDBDBD" transform="translate(737,804)"/>
<path d="M0 0 C1.20628008 2.33214148 2.1654738 4.49642139 3 7 C2.236875 6.9175 1.47375 6.835 0.6875 6.75 C-2.08172479 6.7316931 -2.08172479 6.7316931 -3.8125 8.6875 C-5.17577792 11.34230436 -5.24535485 13.05574183 -5 16 C-5.66 16 -6.32 16 -7 16 C-7 16.66 -7 17.32 -7 18 C-6.34 18 -5.68 18 -5 18 C-5.33 19.32 -5.66 20.64 -6 22 C-6.99 22 -7.98 22 -9 22 C-11.2322188 23.04841514 -11.2322188 23.04841514 -13 25 C-13.80946422 28.10197397 -13.80946422 28.10197397 -14 31 C-15.98 31 -17.96 31 -20 31 C-17.00506019 24.36217667 -13.43838626 18.58304899 -9.0703125 12.76171875 C-5.9384083 8.58387674 -2.97706976 4.28884112 0 0 Z " fill="#A2A2A2" transform="translate(700,857)"/>
<path d="M0 0 C4.18773831 1.8169939 5.29477852 3.7369463 7 8 C7 9.32 7 10.64 7 12 C3.846632 12.70074844 1.27275026 13 -2 13 C-2.33 12.34 -2.66 11.68 -3 11 C-3.33 11.66 -3.66 12.32 -4 13 C-4.66 13 -5.32 13 -6 13 C-5.51675181 7.84535266 -2.81389239 4.18449681 0 0 Z " fill="#E4E4E4" transform="translate(591,155)"/>
<path d="M0 0 C4.07450463 3.5878542 6.58428903 7.87578054 9.3125 12.5 C9.77978516 13.25925781 10.24707031 14.01851562 10.72851562 14.80078125 C11.16486328 15.53683594 11.60121094 16.27289062 12.05078125 17.03125 C12.44950439 17.69705078 12.84822754 18.36285156 13.2590332 19.04882812 C14.16505875 21.43464565 13.83987244 22.63371628 13 25 C11.68 25 10.36 25 9 25 C8.7834375 23.39125 8.7834375 23.39125 8.5625 21.75 C8.16250558 19.08337051 7.72408076 16.58600271 7 14 C5.35 13.67 3.7 13.34 2 13 C0.24252386 8.49646738 -0.19294408 4.82360189 0 0 Z " fill="#E0E0E0" transform="translate(593,906)"/>
<path d="M0 0 C2.31 0.66 4.62 1.32 7 2 C7.12375 2.721875 7.2475 3.44375 7.375 4.1875 C7.9904931 6.95721894 8.88444374 9.3970354 10 12 C10.99 12 11.98 12 13 12 C13.33 13.65 13.66 15.3 14 17 C14.66 17 15.32 17 16 17 C16.125 19.875 16.125 19.875 16 23 C15.34 23.66 14.68 24.32 14 25 C11.84950259 21.39859681 9.70540968 17.79342235 7.5625 14.1875 C6.95083984 13.16333984 6.33917969 12.13917969 5.70898438 11.08398438 C5.12568359 10.10107422 4.54238281 9.11816406 3.94140625 8.10546875 C3.40201416 7.19949951 2.86262207 6.29353027 2.30688477 5.36010742 C1 3 1 3 0 0 Z M10 14 C10.99 14.99 11.98 15.98 13 17 C12.67 16.01 12.34 15.02 12 14 C11.34 14 10.68 14 10 14 Z " fill="#868686" transform="translate(655,292)"/>
<path d="M0 0 C1.45792884 -0.05399736 2.91642712 -0.09279177 4.375 -0.125 C5.18710937 -0.14820313 5.99921875 -0.17140625 6.8359375 -0.1953125 C9 0 9 0 11 2 C11.33 2.99 11.66 3.98 12 5 C12.99 5.66 13.98 6.32 15 7 C14.67 8.32 14.34 9.64 14 11 C12.68 11.33 11.36 11.66 10 12 C8.02 8.535 8.02 8.535 6 5 C5.01 5 4.02 5 3 5 C3 5.66 3 6.32 3 7 C1.68 7.33 0.36 7.66 -1 8 C-1.08226668 4.95613276 -0.97608217 2.92824652 0 0 Z " fill="#DEDEDE" transform="translate(601,208)"/>
<path d="M0 0 C3.17740404 3.76159044 5.71955689 7.71959174 8.125 12 C8.64513672 12.90492188 8.64513672 12.90492188 9.17578125 13.828125 C11.05469123 17.13961386 12.68664206 20.42550003 14 24 C13.34 24 12.68 24 12 24 C12 24.66 12 25.32 12 26 C11.34 26 10.68 26 10 26 C9.855625 25.21625 9.71125 24.4325 9.5625 23.625 C9.12201075 21.03578982 9.12201075 21.03578982 8 19 C7.34 19.99 6.68 20.98 6 22 C5.67 18.7 5.34 15.4 5 12 C3.68 11.67 2.36 11.34 1 11 C0.34 10.67 -0.32 10.34 -1 10 C-1.125 3.375 -1.125 3.375 0 0 Z " fill="#989898" transform="translate(651,253)"/>
<path d="M0 0 C1.9375 0.8125 1.9375 0.8125 4 2 C4.33 2.99 4.66 3.98 5 5 C3 8 3 8 1 8.75 C-1 9 -1 9 -3 8 C-3.33 8.99 -3.66 9.98 -4 11 C-3.67 11.33 -3.34 11.66 -3 12 C-2.95936168 13.66617115 -2.957279 15.33388095 -3 17 C-3.94875 16.814375 -4.8975 16.62875 -5.875 16.4375 C-8.89868793 15.71313368 -8.89868793 15.71313368 -11 17 C-9.3189585 13.3650778 -7.16668 10.13401865 -4.9375 6.8125 C-4.22464844 5.74644531 -3.51179687 4.68039062 -2.77734375 3.58203125 C-1 1 -1 1 0 0 Z M-6 11 C-5 13 -5 13 -5 13 Z " fill="#959595" transform="translate(723,823)"/>
<path d="M0 0 C2.0625 0.4375 2.0625 0.4375 4 1 C3.67 3.64 3.34 6.28 3 9 C2.0925 9 1.185 9 0.25 9 C-3.02418519 9.62378522 -3.02418519 9.62378522 -4.11328125 11.7421875 C-4.75063004 13.17425515 -5.37549993 14.61193655 -5.98828125 16.0546875 C-7.39692297 18.76319551 -9.26109167 19.78270741 -12 21 C-11.3811846 17.97108359 -10.40106157 15.7507659 -8.75 13.14453125 C-8.3065625 12.44005859 -7.863125 11.73558594 -7.40625 11.00976562 C-6.9421875 10.28466797 -6.478125 9.55957031 -6 8.8125 C-5.5359375 8.07580078 -5.071875 7.33910156 -4.59375 6.58007812 C-1.16870301 1.16870301 -1.16870301 1.16870301 0 0 Z " fill="#CFCFCF" transform="translate(531,255)"/>
<path d="M0 0 C4.17906895 3.55994763 6.68559431 8.08663054 9 13 C9 13.66 9 14.32 9 15 C5.535 16.485 5.535 16.485 2 18 C0.39878129 13.09626771 -0.10018976 9.20986729 0 4 C-0.33 3.01 -0.66 2.02 -1 1 C-0.67 0.67 -0.34 0.34 0 0 Z " fill="#E3E3E3" transform="translate(608,182)"/>
<path d="M0 0 C4.41863186 3.77534655 6.95853841 8.65190698 9.8125 13.625 C10.32748047 14.49640625 10.84246094 15.3678125 11.37304688 16.265625 C12.09524414 17.51472656 12.09524414 17.51472656 12.83203125 18.7890625 C13.27264893 19.54912598 13.7132666 20.30918945 14.16723633 21.09228516 C14.57945435 22.036604 14.57945435 22.036604 15 23 C14.67 23.66 14.34 24.32 14 25 C10.96586791 22.12555907 8.85429327 19.70858653 7 16 C6.01 15.67 5.02 15.34 4 15 C3.67 14.01 3.34 13.02 3 12 C2.01 12.33 1.02 12.66 0 13 C0 12.34 0 11.68 0 11 C0.66 11 1.32 11 2 11 C1.40049704 7.31733897 0.75241109 3.65456815 0 0 Z M11 20 C12 22 12 22 12 22 Z " fill="#8B8B8B" transform="translate(417,729)"/>
<path d="M0 0 C0.99 0.33 1.98 0.66 3 1 C3 1.66 3 2.32 3 3 C2.34 3 1.68 3 1 3 C1 3.66 1 4.32 1 5 C1.99 4.67 2.98 4.34 4 4 C3.34 5.98 2.68 7.96 2 10 C1.01 10 0.02 10 -1 10 C-3.33889989 10.88237303 -3.33889989 10.88237303 -4.0625 13.9375 C-4.371875 14.948125 -4.68125 15.95875 -5 17 C-5.33 17.66 -5.66 18.32 -6 19 C-6.66 19 -7.32 19 -8 19 C-8.7421875 17.44921875 -8.7421875 17.44921875 -9 15 C-7.80032645 12.46445808 -6.58034522 10.19021285 -5.125 7.8125 C-4.55845703 6.85053711 -4.55845703 6.85053711 -3.98046875 5.86914062 C-1.22349838 1.22349838 -1.22349838 1.22349838 0 0 Z " fill="#D8D8D8" transform="translate(571,188)"/>
<path d="M0 0 C0.66 0.33 1.32 0.66 2 1 C2.33 0.67 2.66 0.34 3 0 C3.66 0.33 4.32 0.66 5 1 C3.42240425 3.42058585 1.83823907 5.83641198 0.25 8.25 C-0.1934375 8.93191406 -0.636875 9.61382813 -1.09375 10.31640625 C-3.46539966 13.90875794 -5.78701214 17.08729138 -9 20 C-10.0326802 17.21176345 -10.04509293 16.1322726 -9.0625 13.25 C-8.711875 12.5075 -8.36125 11.765 -8 11 C-7.01 11 -6.02 11 -5 11 C-4.9175 9.9275 -4.835 8.855 -4.75 7.75 C-3.94523098 3.7261549 -3.12270126 2.51830747 0 0 Z " fill="#989898" transform="translate(724,845)"/>
<path d="M0 0 C0.99 0.33 1.98 0.66 3 1 C3.103125 2.19625 3.20625 3.3925 3.3125 4.625 C3.78891352 8.5624176 5.01130716 11.54140375 7 15 C7.99 15 8.98 15 10 15 C10.99 15.33 11.98 15.66 13 16 C12.525625 16.5775 12.05125 17.155 11.5625 17.75 C10.03264756 19.95298751 9.55661048 21.42770302 9 24 C7.09512551 20.95514788 5.23174692 17.88689617 3.375 14.8125 C2.83359375 13.94818359 2.2921875 13.08386719 1.734375 12.19335938 C1.23164063 11.35224609 0.72890625 10.51113281 0.2109375 9.64453125 C-0.26037598 8.87471924 -0.73168945 8.10490723 -1.21728516 7.31176758 C-2 5 -2 5 -1.13818359 2.2097168 C-0.76258301 1.48051025 -0.38698242 0.75130371 0 0 Z " fill="#8C8C8C" transform="translate(412,744)"/>
<path d="M0 0 C1.32 0 2.64 0 4 0 C4.33 1.65 4.66 3.3 5 5 C6.98 5 8.96 5 11 5 C11 5.66 11 6.32 11 7 C11.639375 7.268125 12.27875 7.53625 12.9375 7.8125 C15 9 15 9 16 12 C16.66 12.66 17.32 13.32 18 14 C16 15 16 15 13.73828125 14.40625 C10.30297181 12.64203973 7.84212236 10.24322791 5.1875 7.5 C4.68541016 7.00113281 4.18332031 6.50226562 3.66601562 5.98828125 C0 2.26740009 0 2.26740009 0 0 Z " fill="#C8C8C8" transform="translate(536,901)"/>
<path d="M0 0 C0.33 4.62 0.66 9.24 1 14 C-4.54395392 10.67362765 -5.42369671 9.54896094 -8 4 C-7.67 3.01 -7.34 2.02 -7 1 C-4 0 -4 0 0 0 Z " fill="#C4C4C4" transform="translate(639,249)"/>
<path d="M0 0 C3.22269618 3.79817765 5.74520378 7.57391854 8 12 C7.67 12.66 7.34 13.32 7 14 C1.25 14.125 1.25 14.125 -1 13 C-0.814375 12.030625 -0.62875 11.06125 -0.4375 10.0625 C-0.293125 9.051875 -0.14875 8.04125 0 7 C-0.33 6.67 -0.66 6.34 -1 6 C-1.125 3.5 -1.125 3.5 -1 1 C-0.67 0.67 -0.34 0.34 0 0 Z " fill="#878787" transform="translate(673,290)"/>
<path d="M0 0 C1.98 0 3.96 0 6 0 C6.33 0.99 6.66 1.98 7 3 C5.48828125 5.91796875 5.48828125 5.91796875 3.3125 9.1875 C2.60738281 10.27417969 1.90226563 11.36085938 1.17578125 12.48046875 C0.45777344 13.31191406 -0.26023437 14.14335938 -1 15 C-2.32 15 -3.64 15 -5 15 C-5.33 14.34 -5.66 13.68 -6 13 C-5.0625 10.375 -5.0625 10.375 -4 8 C-3.34 8.33 -2.68 8.66 -2 9 C-2 9.66 -2 10.32 -2 11 C-1.34 11 -0.68 11 0 11 C-0.20625 10.38125 -0.4125 9.7625 -0.625 9.125 C-0.74875 8.42375 -0.8725 7.7225 -1 7 C-0.34 6.34 0.32 5.68 1 5 C0.67958603 2.39719432 0.67958603 2.39719432 0 0 Z " fill="#8F8F8F" transform="translate(681,904)"/>
<path d="M0 0 C1.32 0 2.64 0 4 0 C3.67 0.66 3.34 1.32 3 2 C3.33 2.66 3.66 3.32 4 4 C6.52733235 4.65555119 6.52733235 4.65555119 9 5 C9.66 7.31 10.32 9.62 11 12 C10.01 12.66 9.02 13.32 8 14 C4.32770991 10.62546316 1.91051157 7.62544907 0 3 C0 2.01 0 1.02 0 0 Z " fill="#DCDCDC" transform="translate(572,899)"/>
<path d="M0 0 C0 3.98189489 -1.47178333 4.98018565 -4 8 C-5.37780167 9.97360779 -6.68630267 11.98253624 -8 14 C-8.66 13.34 -9.32 12.68 -10 12 C-9.9765625 9.6171875 -9.9765625 9.6171875 -9.625 6.875 C-9.51414062 5.96492187 -9.40328125 5.05484375 -9.2890625 4.1171875 C-9.19367187 3.41851563 -9.09828125 2.71984375 -9 2 C-6.94921875 1.77213542 -4.8984375 1.54427083 -2.84765625 1.31640625 C-0.98859771 1.18113386 -0.98859771 1.18113386 0 0 Z " fill="#A0A0A0" transform="translate(802,735)"/>
<path d="M0 0 C0.66 0.33 1.32 0.66 2 1 C0.02 1.99 0.02 1.99 -2 3 C-1.814375 3.61875 -1.62875 4.2375 -1.4375 4.875 C-1 7 -1 7 -2 9 C-3.423125 8.9071875 -3.423125 8.9071875 -4.875 8.8125 C-6.421875 8.9053125 -6.421875 8.9053125 -8 9 C-8.99 10.485 -8.99 10.485 -10 12 C-12.375 12.625 -12.375 12.625 -15 13 C-16.33542939 13.32483418 -17.66961551 13.6550855 -19 14 C-15.53233124 10.17483962 -11.54420806 7.54245288 -7.25 4.75 C-6.20392578 4.06164062 -6.20392578 4.06164062 -5.13671875 3.359375 C-3.42725789 2.23534594 -1.71400488 1.11708776 0 0 Z " fill="#8C8C8C" transform="translate(665,623)"/>
<path d="M0 0 C0.66 0.33 1.32 0.66 2 1 C2 3.97 2 6.94 2 10 C1.01 10 0.02 10 -1 10 C-1 9.34 -1 8.68 -1 8 C-4.37088267 10.27415287 -4.37088267 10.27415287 -6 14 C-6.99 14.33 -7.98 14.66 -9 15 C-7.53205148 9.1282059 -4.26622657 4.26622657 0 0 Z " fill="#CFCFCF" transform="translate(542,238)"/>
<path d="M0 0 C0.66 0.33 1.32 0.66 2 1 C1 3 1 3 -0.875 5.125 C-3.50780402 8.68702897 -4.68304049 11.77186682 -6 16 C-5.67 16.66 -5.34 17.32 -5 18 C-5.33 18.66 -5.66 19.32 -6 20 C-6.598125 19.835 -7.19625 19.67 -7.8125 19.5 C-10.11344336 18.8885876 -10.11344336 18.8885876 -13 19 C-11.39726826 16.58237088 -9.79287303 14.1658743 -8.1875 11.75 C-7.73568359 11.06808594 -7.28386719 10.38617187 -6.81835938 9.68359375 C-4.62668041 6.38807647 -2.42750212 3.12913895 0 0 Z " fill="#8D8D8D" transform="translate(741,796)"/>
<path d="M0 0 C3.78570414 1.26190138 4.21831571 2.54855815 6.1875 5.9375 C6.71730469 6.83339844 7.24710938 7.72929688 7.79296875 8.65234375 C9 11 9 11 9 13 C6.69 13 4.38 13 2 13 C2 11.68 2 10.36 2 9 C2.66 9 3.32 9 4 9 C3.67 8.01 3.34 7.02 3 6 C0.49552484 4.78130071 0.49552484 4.78130071 -2 4 C-1.33333333 2.66666667 -0.66666667 1.33333333 0 0 Z " fill="#DCDCDC" transform="translate(607,931)"/>
<path d="M0 0 C0.99 0.33 1.98 0.66 3 1 C3 2.65 3 4.3 3 6 C2.34 6 1.68 6 1 6 C1 6.66 1 7.32 1 8 C1.66 8.33 2.32 8.66 3 9 C2.67 9.99 2.34 10.98 2 12 C-1 13 -1 13 -3.1875 12.0625 C-3.785625 11.711875 -4.38375 11.36125 -5 11 C-3.77472971 6.94718288 -2.30119506 3.55639236 0 0 Z " fill="#DDDDDE" transform="translate(509,290)"/>
<path d="M0 0 C0 3.64741442 -0.86836038 6.54221228 -2 10 C-2.66 10.66 -3.32 11.32 -4 12 C-4.39764263 13.98821313 -4.73775349 15.98944339 -5 18 C-6.98 18 -8.96 18 -11 18 C-7.95355965 11.42184562 -4.57644793 5.63013182 0 0 Z " fill="#999999" transform="translate(691,870)"/>
<path d="M0 0 C5.13328252 0.792311 6.87556452 4.09445564 10 8 C5.545 8.495 5.545 8.495 1 9 C0.17189174 5.68756695 -0.09278428 3.34023421 0 0 Z " fill="#DDDDDD" transform="translate(576,919)"/>
<path d="M0 0 C-1.45044271 4.10958767 -3.51110752 7.43258745 -6 11 C-8 10 -8 10 -9 9 C-9.04092937 6.66702567 -9.04241723 4.33294775 -9 2 C-8.01 2.495 -8.01 2.495 -7 3 C-6.34 2.34 -5.68 1.68 -5 1 C-3 0 -3 0 0 0 Z " fill="#D3D3D3" transform="translate(578,209)"/>
<path d="M0 0 C3 2 3 2 6 4 C4.8141763 7.37503669 3.72426311 9.64722731 1 12 C0.67 10.68 0.34 9.36 0 8 C-0.99 8.495 -0.99 8.495 -2 9 C-2.33 6.69 -2.66 4.38 -3 2 C-2.01 1.34 -1.02 0.68 0 0 Z " fill="#A0A0A0" transform="translate(691,888)"/>
<path d="M0 0 C0 3.41321235 -0.66867466 4.39472885 -2.5 7.1875 C-2.9640625 7.90292969 -3.428125 8.61835937 -3.90625 9.35546875 C-4.2671875 9.89816406 -4.628125 10.44085937 -5 11 C-6.7824918 7.66688525 -7.48792856 4.75519057 -8 1 C-5.29120665 -0.35439668 -2.99066732 -0.06501451 0 0 Z " fill="#9F9F9F" transform="translate(752,808)"/>
<path d="M0 0 C2.125 0.9375 2.125 0.9375 4 2 C3.125 6.75 3.125 6.75 2 9 C-0.5625 9.625 -0.5625 9.625 -3 10 C-4.26339822 6.20980534 -3.49719015 4.62477616 -2 1 C-1.34 0.67 -0.68 0.34 0 0 Z " fill="#CECECF" transform="translate(524,288)"/>
<path d="M0 0 C0.66 0 1.32 0 2 0 C4.33205508 3.49808262 4.08349099 4.90894125 4 9 C4.43941523 11.26566343 4.43941523 11.26566343 5 13 C3.33333333 13 1.66666667 13 0 13 C-0.19397476 11.02145742 -0.38001321 9.0421352 -0.5625 7.0625 C-0.66691406 5.96035156 -0.77132812 4.85820312 -0.87890625 3.72265625 C-0.91886719 2.82417969 -0.95882812 1.92570313 -1 1 C-0.67 0.67 -0.34 0.34 0 0 Z " fill="#CCCCCC" transform="translate(633,225)"/>
<path d="M0 0 C2.1875 -0.375 2.1875 -0.375 5 0 C7.08832653 1.82869674 8.38336791 3.69052559 10 6 C10 6.66 10 7.32 10 8 C6.85262818 7.30058404 3.97411124 6.23921302 1 5 C0.67 5.66 0.34 6.32 0 7 C-1.33332095 4.3333581 -0.67102033 2.83319697 0 0 Z " fill="#CACACA" transform="translate(561,905)"/>
<path d="M0 0 C0 0.99 0 1.98 0 3 C0.3062434 4.33981486 0.63451555 5.67511887 1 7 C0.360625 7.433125 -0.27875 7.86625 -0.9375 8.3125 C-3.26746003 9.91239177 -3.26746003 9.91239177 -4 13 C-4.33 13.66 -4.66 14.32 -5 15 C-7.5625 15.625 -7.5625 15.625 -10 16 C-8.55797524 11.84848662 -6.4989562 8.70021555 -3.875 5.1875 C-3.15054688 4.21167969 -2.42609375 3.23585938 -1.6796875 2.23046875 C-0.84824219 1.12638672 -0.84824219 1.12638672 0 0 Z " fill="#929292" transform="translate(772,750)"/>
<path d="M0 0 C3.13498176 1.08102819 3.9868559 1.97840612 5.75 4.875 C7 8 7 8 7 12 C5.35 12.33 3.7 12.66 2 13 C1.875 6.375 1.875 6.375 3 3 C1.35 3.33 -0.3 3.66 -2 4 C-1.34 2.68 -0.68 1.36 0 0 Z " fill="#D3D3D3" transform="translate(591,155)"/>
<path d="M0 0 C1.32 0.66 2.64 1.32 4 2 C2.54955729 6.10958767 0.48889248 9.43258745 -2 13 C-2.33 12.34 -2.66 11.68 -3 11 C-3.66 11 -4.32 11 -5 11 C-4.08842954 6.74600454 -2.40838199 3.61257298 0 0 Z " fill="#919191" transform="translate(662,936)"/>
<path d="M0 0 C1.59036701 3.18073402 0.78365299 5.62426403 0 9 C-2.0625 10.4375 -2.0625 10.4375 -4 11 C-4 11.66 -4 12.32 -4 13 C-5.98 13.99 -7.96 14.98 -10 16 C-8.54997977 11.89160936 -6.6020866 8.49655387 -4 5 C-3.34 5 -2.68 5 -2 5 C-1.34 3.35 -0.68 1.7 0 0 Z " fill="#8D8D8D" transform="translate(792,720)"/>
<path d="M0 0 C1.1446875 0.2784375 1.1446875 0.2784375 2.3125 0.5625 C5.08967375 1.22819173 5.08967375 1.22819173 8 0 C8.33 0.66 8.66 1.32 9 2 C7.6015625 4.6015625 7.6015625 4.6015625 5.625 7.625 C4.97789062 8.62789062 4.33078125 9.63078125 3.6640625 10.6640625 C3.11492188 11.43492187 2.56578125 12.20578125 2 13 C1.67 13 1.34 13 1 13 C1 11.02 1 9.04 1 7 C1.66 7 2.32 7 3 7 C2.65772428 4.02934491 2.65772428 4.02934491 2 1 C1.34 0.67 0.68 0.34 0 0 Z " fill="#9B9B9B" transform="translate(728,832)"/>
<path d="M0 0 C0.99 0 1.98 0 3 0 C3 0.66 3 1.32 3 2 C3.66 2 4.32 2 5 2 C5.33 1.34 5.66 0.68 6 0 C6.33 0.99 6.66 1.98 7 3 C7.99 3.33 8.98 3.66 10 4 C10 6.31 10 8.62 10 11 C8.8944811 10.06409496 7.79064547 9.12620142 6.6875 8.1875 C6.07261719 7.66542969 5.45773437 7.14335938 4.82421875 6.60546875 C1.48047722 3.6626898 1.48047722 3.6626898 0 2 C0 1.34 0 0.68 0 0 Z M6 3 C7 5 7 5 7 5 Z " fill="#D8D8D8" transform="translate(617,984)"/>
<path d="M0 0 C1.65 0 3.3 0 5 0 C5.33 0.66 5.66 1.32 6 2 C4.1875 5 4.1875 5 2 8 C1.01 8 0.02 8 -1 8 C-1.66 7.34 -2.32 6.68 -3 6 C-2.625 3.375 -2.625 3.375 -2 1 C-1.34 1 -0.68 1 0 1 C0 0.67 0 0.34 0 0 Z " fill="#A2A2A2" transform="translate(763,784)"/>
<path d="M0 0 C0.66 0.66 1.32 1.32 2 2 C0.68 4.31 -0.64 6.62 -2 9 C-6.8 5.55384615 -6.8 5.55384615 -7.8125 2.75 C-7.874375 2.1725 -7.93625 1.595 -8 1 C-6.8553125 1.309375 -6.8553125 1.309375 -5.6875 1.625 C-2.78114056 2.33391203 -2.78114056 2.33391203 0 0 Z " fill="#929292" transform="translate(432,447)"/>
<path d="M0 0 C1.32 0 2.64 0 4 0 C4.66 0.99 5.32 1.98 6 3 C6.66 3 7.32 3 8 3 C8.125 6.375 8.125 6.375 8 10 C7.34 10.66 6.68 11.32 6 12 C4.99466333 10.37829621 3.99588093 8.75252763 3 7.125 C2.443125 6.22007812 1.88625 5.31515625 1.3125 4.3828125 C0 2 0 2 0 0 Z " fill="#9F9F9F" transform="translate(648,280)"/>
<path d="M0 0 C1 4 1 4 1 7 C2.43750191 8.68798827 2.43750191 8.68798827 4 10 C0.79937313 11.60031344 -1.72271806 10.03173691 -5 9 C-5 9.66 -5 10.32 -5 11 C-5.66 10.67 -6.32 10.34 -7 10 C-3.535 5.05 -3.535 5.05 0 0 Z " fill="#949494" transform="translate(708,845)"/>
<path d="M0 0 C1.98 0 3.96 0 6 0 C6.66 1.98 7.32 3.96 8 6 C7.01 6.99 6.02 7.98 5 9 C1.13892543 6.42595029 1.05680308 4.38979741 0 0 Z " fill="#7A7A7A" transform="translate(399,728)"/>
<path d="M0 0 C0.66 0 1.32 0 2 0 C2 0.66 2 1.32 2 2 C3.84725052 2.69159401 3.84725052 2.69159401 6 3 C6.99 2.34 7.98 1.68 9 1 C8.125 4.875 8.125 4.875 7 6 C7.66 6.33 8.32 6.66 9 7 C8.67 8.98 8.34 10.96 8 13 C4.48901975 8.98745115 2.23462006 4.79016959 0 0 Z " fill="#969696" transform="translate(726,411)"/>
<path d="M0 0 C-0.33 1.65 -0.66 3.3 -1 5 C-2.98 5 -4.96 5 -7 5 C-7.33 5.66 -7.66 6.32 -8 7 C-8.66 7 -9.32 7 -10 7 C-9.125 2.25 -9.125 2.25 -8 0 C-4.71585695 -0.95067299 -3.30306592 -1.10102197 0 0 Z " fill="#DFDFDF" transform="translate(584,179)"/>
<path d="M0 0 C1 3 1 3 1 6 C0.01 6.66 -0.98 7.32 -2 8 C-3.30065921 9.93383287 -3.30065921 9.93383287 -4 12 C-3.67 12.66 -3.34 13.32 -3 14 C-5.31 14.66 -7.62 15.32 -10 16 C-6.99935973 10.36901124 -3.81213639 5.11915459 0 0 Z " fill="#939393" transform="translate(758,770)"/>
<path d="M0 0 C2.2890625 0.19140625 2.2890625 0.19140625 5 1 C6.8359375 3.21484375 6.8359375 3.21484375 8.375 5.9375 C8.89835937 6.83339844 9.42171875 7.72929688 9.9609375 8.65234375 C10.30382812 9.42707031 10.64671875 10.20179688 11 11 C10.67 11.66 10.34 12.32 10 13 C6.96586791 10.12555907 4.85429327 7.70858653 3 4 C2.01 3.67 1.02 3.34 0 3 C0 2.01 0 1.02 0 0 Z M7 8 C8 10 8 10 8 10 Z " fill="#8D8D8D" transform="translate(421,741)"/>
<path d="M0 0 C2.31242092 2.16323247 4.0156396 4.37647804 5.6875 7.0625 C6.12449219 7.75472656 6.56148438 8.44695313 7.01171875 9.16015625 C8 11 8 11 8 13 C6.125 12.75 6.125 12.75 4 12 C2.75 9.9375 2.75 9.9375 2 8 C1.01 8.495 1.01 8.495 0 9 C-1.10844919 5.67465243 -0.84454356 3.37817425 0 0 Z " fill="#757575" transform="translate(409,715)"/>
<path d="M0 0 C2.125 0.375 2.125 0.375 4 1 C3.67 3.64 3.34 6.28 3 9 C1.35 8.67 -0.3 8.34 -2 8 C-2.125 5.125 -2.125 5.125 -2 2 C-1.34 1.34 -0.68 0.68 0 0 Z " fill="#DADADA" transform="translate(531,255)"/>
<path d="M0 0 C0.66 1.32 1.32 2.64 2 4 C1.125 6.25 1.125 6.25 0 8 C0 7.34 0 6.68 0 6 C-2.33965571 8.22723982 -4.27099166 10.58956647 -6.1875 13.1875 C-6.71730469 13.90292969 -7.24710938 14.61835937 -7.79296875 15.35546875 C-8.19128906 15.89816406 -8.58960938 16.44085937 -9 17 C-9.33 16.34 -9.66 15.68 -10 15 C-5.05 7.575 -5.05 7.575 0 0 Z " fill="#818181" transform="translate(670,901)"/>
<path d="M0 0 C1.4540625 0.0309375 1.4540625 0.0309375 2.9375 0.0625 C3.2675 2.0425 3.5975 4.0225 3.9375 6.0625 C1.2975 6.0625 -1.3425 6.0625 -4.0625 6.0625 C-4.105221 4.39638095 -4.10313832 2.72867115 -4.0625 1.0625 C-3.0625 0.0625 -3.0625 0.0625 0 0 Z " fill="#D4D4D4" transform="translate(628.0625,649.9375)"/>
<path d="M0 0 C1.32 0.66 2.64 1.32 4 2 C2.8125 4.4375 2.8125 4.4375 1 7 C-1.6875 7.8125 -1.6875 7.8125 -4 8 C-4 7.34 -4 6.68 -4 6 C-4.66 5.67 -5.32 5.34 -6 5 C-4.02 3.35 -2.04 1.7 0 0 Z " fill="#CCCCCC" transform="translate(550,248)"/>
<path d="M0 0 C0 0.66 0 1.32 0 2 C-0.66 2 -1.32 2 -2 2 C-1.67 2.99 -1.34 3.98 -1 5 C-0.01 5.33 0.98 5.66 2 6 C1.34 7.65 0.68 9.3 0 11 C-3.48331435 7.98112756 -4.79157144 5.43090471 -6 1 C-3.92446352 0.4465236 -2.15634036 0 0 0 Z " fill="#D0D0D0" transform="translate(622,225)"/>
<path d="M0 0 C2 1 2 1 2 1 Z M4 1 C2.8141763 4.37503669 1.72426311 6.64722731 -1 9 C-1 8.34 -1 7.68 -1 7 C-1.99 6.67 -2.98 6.34 -4 6 C-4 4.68 -4 3.36 -4 2 C-1.29120665 0.64560332 1.00933268 0.93498549 4 1 Z " fill="#A3A3A3" transform="translate(652,952)"/>
<path d="M0 0 C3.96873434 1.32291145 4.29905037 2.91149738 6.1875 6.5625 C6.71730469 7.57441406 7.24710938 8.58632813 7.79296875 9.62890625 C8.19128906 10.41136719 8.58960938 11.19382812 9 12 C8.34 12 7.68 12 7 12 C5.61767557 10.37373596 4.28062485 8.7074998 3 7 C2.01 7.33 1.02 7.66 0 8 C0 5.36 0 2.72 0 0 Z " fill="#999999" transform="translate(737,400)"/>
<path d="M0 0 C0.99 0.33 1.98 0.66 3 1 C2.67 3.64 2.34 6.28 2 9 C0.68 9.33 -0.64 9.66 -2 10 C-3.06351675 6.61608307 -3.21442982 5.4195366 -1.5625 2.1875 C-1.046875 1.465625 -0.53125 0.74375 0 0 Z " fill="#CACACA" transform="translate(549,224)"/>
<path d="M0 0 C0.33 0 0.66 0 1 0 C1.08226668 3.04386724 0.97608217 5.07175348 0 8 C-0.66 8 -1.32 8 -2 8 C-2.33 8.99 -2.66 9.98 -3 11 C-4.65 11.33 -6.3 11.66 -8 12 C-6.85573734 10.186508 -5.70954608 8.37423275 -4.5625 6.5625 C-3.60537109 5.04849609 -3.60537109 5.04849609 -2.62890625 3.50390625 C-1 1 -1 1 0 0 Z " fill="#959595" transform="translate(654,925)"/>
<path d="M0 0 C-1.49836105 3.11198065 -3.19933758 6.0534615 -5 9 C-5.66 8.01 -6.32 7.02 -7 6 C-6.125 3.3125 -6.125 3.3125 -5 1 C-5.99 1.33 -6.98 1.66 -8 2 C-8 1.34 -8 0.68 -8 0 C-4.94736336 -0.98120464 -3.05263664 -0.98120464 0 0 Z " fill="#A0A0A0" transform="translate(785,761)"/>
<path d="M0 0 C1.26724763 3.80174289 0.4750819 5.3511132 -1 9 C-1.66 9.66 -2.32 10.32 -3 11 C-3.66 11 -4.32 11 -5 11 C-5.3125 8.3125 -5.3125 8.3125 -5 5 C-2.5 2.125 -2.5 2.125 0 0 Z " fill="#A5A5A5" transform="translate(743,797)"/>
<path d="M0 0 C2 3 2 3 1.6875 5.5625 C1 8 1 8 0 10 C-1.97888961 10.72693904 -3.97954558 11.39816251 -6 12 C-4.43358249 7.69235185 -2.31663844 3.93828536 0 0 Z " fill="#8F8F8F" transform="translate(429,422)"/>
<path d="M0 0 C0.33 0.66 0.66 1.32 1 2 C1.66 2.309375 2.32 2.61875 3 2.9375 C5 4 5 4 6 7 C6.66 7.66 7.32 8.32 8 9 C7.01 9.495 7.01 9.495 6 10 C3.375 9.0625 3.375 9.0625 1 8 C1.33 6.68 1.66 5.36 2 4 C1.01 3.67 0.02 3.34 -1 3 C-0.67 2.01 -0.34 1.02 0 0 Z " fill="#D0D0D0" transform="translate(546,906)"/>
<path d="M0 0 C0.66 0.33 1.32 0.66 2 1 C-0.31 4.63 -2.62 8.26 -5 12 C-5.66 11.01 -6.32 10.02 -7 9 C-6.4375 6.4375 -6.4375 6.4375 -5 4 C-2.375 2.6875 -2.375 2.6875 0 2 C0 1.34 0 0.68 0 0 Z " fill="#939393" transform="translate(743,821)"/>
<path d="M0 0 C0.33 0.66 0.66 1.32 1 2 C1.66 2 2.32 2 3 2 C3 2.66 3 3.32 3 4 C1 5.625 1 5.625 -1 7 C-0.01 7.66 0.98 8.32 2 9 C0.35 8.67 -1.3 8.34 -3 8 C-3.66 6.02 -4.32 4.04 -5 2 C-4.01 2 -3.02 2 -2 2 C-1.34 1.34 -0.68 0.68 0 0 Z " fill="#919191" transform="translate(429,769)"/>
<path d="M0 0 C1.46726798 3.81489674 0.43336419 6.29011622 -1 10 C-3.32472205 7.14693203 -4.7508258 4.45925163 -6 1 C-3.92446352 0.4465236 -2.15634036 0 0 0 Z " fill="#949495" transform="translate(374,675)"/>
<path d="M0 0 C0.99 0 1.98 0 3 0 C5.41914224 2.63259597 6.86476266 4.59428799 8 8 C6.35 8 4.7 8 3 8 C3 7.01 3 6.02 3 5 C2.01 5 1.02 5 0 5 C0 3.35 0 1.7 0 0 Z " fill="#9A9A9A" transform="translate(745,416)"/>
<path d="M0 0 C2.31 0.66 4.62 1.32 7 2 C7.33 3.65 7.66 5.3 8 7 C7.01 7.495 7.01 7.495 6 8 C5.01 7.67 4.02 7.34 3 7 C1.3125 3.4375 1.3125 3.4375 0 0 Z " fill="#979797" transform="translate(655,292)"/>
<path d="M0 0 C3.82601307 1.45124634 5.22329124 3.35774704 7 7 C7 7.99 7 8.98 7 10 C5.68 9.67 4.36 9.34 3 9 C3 8.01 3 7.02 3 6 C2.01 5.34 1.02 4.68 0 4 C0 2.68 0 1.36 0 0 Z " fill="#D1D1D1" transform="translate(617,948)"/>
<path d="M0 0 C1.875 0.1875 1.875 0.1875 4 1 C5.25 3.5625 5.25 3.5625 6 6 C5.34 6 4.68 6 4 6 C2.37485532 7.45833358 2.37485532 7.45833358 1 9 C0.29925156 5.846632 0 3.27275026 0 0 Z " fill="#909090" transform="translate(664,279)"/>
<path d="M0 0 C1.32 0 2.64 0 4 0 C3.67 0.66 3.34 1.32 3 2 C3.99 3.485 3.99 3.485 5 5 C5.68177416 6.32567199 6.35191436 7.65753688 7 9 C6.01 10.485 6.01 10.485 5 12 C4.15885829 10.56705502 3.32734313 9.12845595 2.5 7.6875 C1.80390625 6.48673828 1.80390625 6.48673828 1.09375 5.26171875 C0 3 0 3 0 0 Z " fill="#CBCBCB" transform="translate(572,899)"/>
<path d="M0 0 C2 4 2 4 3 7 C2.236875 6.9175 1.47375 6.835 0.6875 6.75 C-2.14583333 6.70833333 -2.14583333 6.70833333 -3.8125 9 C-4.4003125 9.99 -4.4003125 9.99 -5 11 C-5.66 10.67 -6.32 10.34 -7 10 C-3.535 5.05 -3.535 5.05 0 0 Z " fill="#929292" transform="translate(700,857)"/>
<path d="M0 0 C0.66 0.99 1.32 1.98 2 3 C0.35 5.31 -1.3 7.62 -3 10 C-3.99 9.34 -4.98 8.68 -6 8 C-6 7.01 -6 6.02 -6 5 C-5.01 5 -4.02 5 -3 5 C-2.5359375 4.0409375 -2.5359375 4.0409375 -2.0625 3.0625 C-1 1 -1 1 0 0 Z " fill="#A2A2A2" transform="translate(775,772)"/>
<path d="M0 0 C0 2.62113708 -0.31292445 4.50935112 -1 7 C-2.33617352 6.02471263 -3.6688751 5.04466681 -5 4.0625 C-5.7425 3.51722656 -6.485 2.97195313 -7.25 2.41015625 C-7.8275 1.94480469 -8.405 1.47945312 -9 1 C-9 0.67 -9 0.34 -9 0 C-2.25 -1.125 -2.25 -1.125 0 0 Z " fill="#9B9B9B" transform="translate(792,705)"/>
<path d="M0 0 C0.66 0.99 1.32 1.98 2 3 C1.34 3 0.68 3 0 3 C-0.103125 3.53625 -0.20625 4.0725 -0.3125 4.625 C-1.46131247 8.5936249 -2.59363204 12.11599728 -6.1875 14.375 C-6.785625 14.58125 -7.38375 14.7875 -8 15 C-6.62712658 11.30123909 -4.93644547 8.0485524 -2.875 4.6875 C-2.33617187 3.80449219 -1.79734375 2.92148437 -1.2421875 2.01171875 C-0.83226562 1.34785156 -0.42234375 0.68398438 0 0 Z " fill="#7A7A7A" transform="translate(422,434)"/>
<path d="M0 0 C0.99 0.33 1.98 0.66 3 1 C3 2.98 3 4.96 3 7 C1.68 7 0.36 7 -1 7 C-1.66 6.34 -2.32 5.68 -3 5 C-2.75 2.9375 -2.75 2.9375 -2 1 C-1.34 0.67 -0.68 0.34 0 0 Z " fill="#DADADA" transform="translate(516,281)"/>
<path d="M0 0 C1.125 1.75 1.125 1.75 2 4 C1.125 6.25 1.125 6.25 0 8 C-1.32 7.67 -2.64 7.34 -4 7 C-4 5.02 -4 3.04 -4 1 C-2.68 0.67 -1.36 0.34 0 0 Z " fill="#DDDDDD" transform="translate(580,200)"/>
<path d="M0 0 C2.64 0.66 5.28 1.32 8 2 C8 6 8 6 7 9 C5.82737096 7.88121617 4.66204862 6.75476949 3.5 5.625 C2.8503125 4.99851562 2.200625 4.37203125 1.53125 3.7265625 C0 2 0 2 0 0 Z " fill="#DBDBDB" transform="translate(584,950)"/>
<path d="M0 0 C3.34252724 -0.07427838 5.8035914 -0.06546953 9 1 C8.67 1.99 8.34 2.98 8 4 C5.4375 5.1875 5.4375 5.1875 3 6 C2.01 4.02 1.02 2.04 0 0 Z " fill="#9E9E9E" transform="translate(734,424)"/>
<path d="M0 0 C1.85776765 3.13498292 2.20140476 5.37471432 2 9 C1.01 9.33 0.02 9.66 -1 10 C-2.1875 7.8125 -2.1875 7.8125 -3 5 C-1.625 2.1875 -1.625 2.1875 0 0 Z " fill="#AEAEAE" transform="translate(645,265)"/>
<path d="M0 0 C1.98 0.495 1.98 0.495 4 1 C4.33 2.32 4.66 3.64 5 5 C4.34 5 3.68 5 3 5 C3 5.66 3 6.32 3 7 C1.68 7.33 0.36 7.66 -1 8 C-1.08226668 4.95613276 -0.97608217 2.92824652 0 0 Z " fill="#E2E2E2" transform="translate(601,208)"/>
<path d="M0 0 C0.99 0 1.98 0 3 0 C3 0.66 3 1.32 3 2 C3.99 2.33 4.98 2.66 6 3 C5.67 3.99 5.34 4.98 5 6 C3.35 5.67 1.7 5.34 0 5 C-0.5625 3.0625 -0.5625 3.0625 -1 1 C-0.67 0.67 -0.34 0.34 0 0 Z " fill="#D8D8D8" transform="translate(560,922)"/>
<path d="M0 0 C2.31 0.33 4.62 0.66 7 1 C7 2.65 7 4.3 7 6 C4 6 4 6 1.8125 4.125 C0 2 0 2 0 0 Z " fill="#DEDEDE" transform="translate(584,920)"/>
<path d="M0 0 C1.98 0 3.96 0 6 0 C6.33 0.99 6.66 1.98 7 3 C6.01 4.485 6.01 4.485 5 6 C3.0625 5.25 3.0625 5.25 1 4 C0.25 1.875 0.25 1.875 0 0 Z " fill="#989898" transform="translate(681,904)"/>
<path d="M0 0 C0.33 0.66 0.66 1.32 1 2 C2.32 1.67 3.64 1.34 5 1 C3.68 3.31 2.36 5.62 1 8 C0.34 8 -0.32 8 -1 8 C-1.66 6.02 -2.32 4.04 -3 2 C-2.01 2 -1.02 2 0 2 C0 1.34 0 0.68 0 0 Z " fill="#9A9A9A" transform="translate(435,438)"/>
<path d="M0 0 C2.4375 0.8125 2.4375 0.8125 5 2 C5.33 2.99 5.66 3.98 6 5 C6.99 5 7.98 5 9 5 C8.67 5.99 8.34 6.98 8 8 C6.68 8 5.36 8 4 8 C2.68 5.36 1.36 2.72 0 0 Z " fill="#8D8D8D" transform="translate(659,299)"/>
<path d="M0 0 C0 3.73361842 -0.66738033 6.50980564 -2 10 C-4.625 11.4375 -4.625 11.4375 -7 12 C-5.44298069 7.32894208 -2.91552627 3.91294315 0 0 Z " fill="#828282" transform="translate(691,870)"/>
<path d="M0 0 C2.4375 0.375 2.4375 0.375 5 1 C5.33 1.66 5.66 2.32 6 3 C6.66 2.67 7.32 2.34 8 2 C7.67 3.65 7.34 5.3 7 7 C6.01 7.33 5.02 7.66 4 8 C2.68 5.36 1.36 2.72 0 0 Z " fill="#747576" transform="translate(391,716)"/>
<path d="M0 0 C1.32 1.32 2.64 2.64 4 4 C3.67 4.99 3.34 5.98 3 7 C1.35 6.67 -0.3 6.34 -2 6 C-1.125 1.125 -1.125 1.125 0 0 Z " fill="#919191" transform="translate(674,297)"/>
<path d="M0 0 C3 3.625 3 3.625 3 7 C2.67 7.33 2.34 7.66 2 8 C2 8.99 2 9.98 2 11 C1.01 10.67 0.02 10.34 -1 10 C-1.125 3.375 -1.125 3.375 0 0 Z " fill="#A5A5A5" transform="translate(651,253)"/>
<path d="M0 0 C1.65 0.33 3.3 0.66 5 1 C4.071875 2.1446875 4.071875 2.1446875 3.125 3.3125 C0.94402948 5.99625809 0.94402948 5.99625809 -1 9 C-1.625 6.1875 -1.625 6.1875 -2 3 C-1.34 2.01 -0.68 1.02 0 0 Z " fill="#D0D0D0" transform="translate(555,214)"/>
<path d="M0 0 C0 3 0 3 -2.5 5.6875 C-3.325 6.450625 -4.15 7.21375 -5 8 C-5.33 5.69 -5.66 3.38 -6 1 C-4.7934375 1.0309375 -4.7934375 1.0309375 -3.5625 1.0625 C-1.06645115 1.29633621 -1.06645115 1.29633621 0 0 Z " fill="#919191" transform="translate(802,735)"/>
<path d="M0 0 C0.66 0.33 1.32 0.66 2 1 C2.33 0.67 2.66 0.34 3 0 C3.66 0.33 4.32 0.66 5 1 C3.02 3.97 3.02 3.97 1 7 C0.01 6.34 -0.98 5.68 -2 5 C-1.34 3.35 -0.68 1.7 0 0 Z " fill="#929292" transform="translate(724,845)"/>
<path d="M0 0 C0.66 0.33 1.32 0.66 2 1 C0.37982158 2.33918806 -1.24629343 3.6711969 -2.875 5 C-4.23238281 6.11375 -4.23238281 6.11375 -5.6171875 7.25 C-8 9 -8 9 -10 9 C-8.60064115 5.59635112 -7.12995268 4.09193812 -4 2.1875 C-3.29875 1.74792969 -2.5975 1.30835938 -1.875 0.85546875 C-1.25625 0.57316406 -0.6375 0.29085937 0 0 Z " fill="#D2D2D2" transform="translate(505,730)"/>
<path d="M0 0 C-1.61315036 2.63198216 -2.4078521 3.83298393 -5.4375 4.6875 C-6.283125 4.790625 -7.12875 4.89375 -8 5 C-9.33542939 5.32483418 -10.66961551 5.6550855 -12 6 C-4.89473684 -1.63157895 -4.89473684 -1.63157895 0 0 Z " fill="#A0A0A0" transform="translate(658,631)"/>
<path d="M0 0 C0.99 0 1.98 0 3 0 C3 0.99 3 1.98 3 3 C3.66 3.33 4.32 3.66 5 4 C3.625 5.5 3.625 5.5 2 7 C1.34 7 0.68 7 0 7 C-1.125 2.25 -1.125 2.25 0 0 Z " fill="#A9A9A9" transform="translate(436,433)"/>
<path d="M0 0 C0.97608217 2.92824652 1.08226668 4.95613276 1 8 C-0.98 8.66 -2.96 9.32 -5 10 C-3.35 6.7 -1.7 3.4 0 0 Z " fill="#939393" transform="translate(443,399)"/>
<path d="M0 0 C2.125 0.9375 2.125 0.9375 4 2 C3.67 2.99 3.34 3.98 3 5 C1.33333333 5 -0.33333333 5 -2 5 C-2 3.68 -2 2.36 -2 1 C-1.34 0.67 -0.68 0.34 0 0 Z " fill="#DCDCDC" transform="translate(524,288)"/>
<path d="M0 0 C1.5625 1.8125 1.5625 1.8125 3 4 C2.67 4.99 2.34 5.98 2 7 C1.34 7 0.68 7 0 7 C-0.33 7.66 -0.66 8.32 -1 9 C-1.66 9 -2.32 9 -3 9 C-2.44271087 5.65626525 -1.64826111 2.96687001 0 0 Z " fill="#D1D1D1" transform="translate(588,159)"/>
<path d="M0 0 C0.99 0 1.98 0 3 0 C2.67 1.98 2.34 3.96 2 6 C0.02 6.33 -1.96 6.66 -4 7 C-1.125 1.125 -1.125 1.125 0 0 Z " fill="#D9D9D9" transform="translate(571,914)"/>
<path d="M0 0 C3.75376152 1.25125384 4.24073289 2.5652404 6 6 C6 6.66 6 7.32 6 8 C2.17053157 6.54744301 0.87949705 4.57104439 -1 1 C-0.67 0.67 -0.34 0.34 0 0 Z " fill="#282828" transform="translate(578,915)"/>
<path d="M0 0 C2.64 0 5.28 0 8 0 C6.3125 2.0625 6.3125 2.0625 4 4 C1.25 3.75 1.25 3.75 -1 3 C-0.67 2.01 -0.34 1.02 0 0 Z " fill="#CDCCD1" transform="translate(562,707)"/>
<path d="M0 0 C1.32 0.66 2.64 1.32 4 2 C4 5 4 5 3 8 C0.9375 5.6875 0.9375 5.6875 -1 3 C-0.67 2.01 -0.34 1.02 0 0 Z " fill="#A1A1A3" transform="translate(363,665)"/>
<path d="M0 0 C0.66 0 1.32 0 2 0 C5 4.38461538 5 4.38461538 5 7 C4.34 7 3.68 7 3 7 C3 7.66 3 8.32 3 9 C2.34 9 1.68 9 1 9 C0.67 6.03 0.34 3.06 0 0 Z " fill="#929292" transform="translate(660,270)"/>
<path d="M0 0 C-0.33 0.66 -0.66 1.32 -1 2 C-3.5625 2.625 -3.5625 2.625 -6 3 C-6.66 1.68 -7.32 0.36 -8 -1 C-4.37673261 -2.2077558 -3.35853631 -1.54311128 0 0 Z " fill="#D4D4D4" transform="translate(560,918)"/>
<path d="M0 0 C0.66 0.33 1.32 0.66 2 1 C0.8141763 4.37503669 -0.27573689 6.64722731 -3 9 C-3 5.19934174 -2.73469028 2.73469028 0 0 Z " fill="#959595" transform="translate(695,891)"/>
<path d="M0 0 C1.32 0.33 2.64 0.66 4 1 C4 2.32 4 3.64 4 5 C2.35 5.33 0.7 5.66 -1 6 C-1 3 -1 3 0 0 Z " fill="#DBDBDB" transform="translate(491,833)"/>
<path d="M0 0 C0.99 1.32 1.98 2.64 3 4 C2.67 4.66 2.34 5.32 2 6 C-0.0625 6.625 -0.0625 6.625 -2 7 C-3 4 -3 4 -2 1 C-1.34 0.67 -0.68 0.34 0 0 Z " fill="#989898" transform="translate(691,320)"/>
<path d="M0 0 C2.31 0.33 4.62 0.66 7 1 C6.34 1.66 5.68 2.32 5 3 C4.30251417 4.31747324 3.63040043 5.64914193 3 7 C0 3.375 0 3.375 0 0 Z " fill="#D4D4D4" transform="translate(605,208)"/>
<path d="M0 0 C1.32 0.33 2.64 0.66 4 1 C2.02 3.97 2.02 3.97 0 7 C-0.99 6.34 -1.98 5.68 -3 5 C-2.01 3.35 -1.02 1.7 0 0 Z " fill="#9F9F9F" transform="translate(787,752)"/>
<path d="M0 0 C0.66 0.66 1.32 1.32 2 2 C-0.3125 4.0625 -0.3125 4.0625 -3 6 C-3.99 5.67 -4.98 5.34 -6 5 C-3.375 1.125 -3.375 1.125 0 0 Z " fill="#D8D8D9" transform="translate(510,745)"/>
<path d="M0 0 C2.31 0 4.62 0 7 0 C6.67 1.32 6.34 2.64 6 4 C3.03 3.505 3.03 3.505 0 3 C0 2.01 0 1.02 0 0 Z " fill="#D8D8D8" transform="translate(561,224)"/>
<path d="M0 0 C1.32 0.66 2.64 1.32 4 2 C3.67 3.32 3.34 4.64 3 6 C1.68 6.33 0.36 6.66 -1 7 C-0.67 4.69 -0.34 2.38 0 0 Z " fill="#C6C6C6" transform="translate(634,977)"/>
<path d="M0 0 C-0.66 1.65 -1.32 3.3 -2 5 C-3.32 5 -4.64 5 -6 5 C-3.74193548 0 -3.74193548 0 0 0 Z " fill="#CDCDCD" transform="translate(558,898)"/>
<path d="M0 0 C1.32 0.66 2.64 1.32 4 2 C2.60203108 4.79593783 0.86525011 4.95173777 -2 6 C-2.99 6.495 -2.99 6.495 -4 7 C-2.92598892 4.08482708 -2.22189824 2.22189824 0 0 Z " fill="#8F8F8F" transform="translate(723,823)"/>
<path d="M0 0 C1.5625 1.625 1.5625 1.625 3 4 C2.6875 7.125 2.6875 7.125 2 10 C2 10.66 2 11.32 2 12 C1.34 12 0.68 12 0 12 C-0.76173392 7.6835078 -1.16063604 4.25566547 0 0 Z " fill="#969696" transform="translate(433,755)"/>
<path d="M0 0 C3.08089673 2.77280706 4.68775452 5.06326356 6 9 C2.83884224 7.63016497 2.0072908 7.0109362 0 4 C0 2.68 0 1.36 0 0 Z " fill="#7C7C7C" transform="translate(417,729)"/>
<path d="M0 0 C2.97 0.495 2.97 0.495 6 1 C6.33 1.99 6.66 2.98 7 4 C6.34 4.66 5.68 5.32 5 6 C3.35 4.02 1.7 2.04 0 0 Z " fill="#9B9B9B" transform="translate(424,696)"/>
<path d="M0 0 C3 0 3 0 5 1 C5 2.65 5 4.3 5 6 C3.0625 5.25 3.0625 5.25 1 4 C0.25 1.875 0.25 1.875 0 0 Z " fill="#D8D8D8" transform="translate(610,976)"/>
<path d="M0 0 C2.97 0.495 2.97 0.495 6 1 C6 1.99 6 2.98 6 4 C4.68 4 3.36 4 2 4 C1.34 2.68 0.68 1.36 0 0 Z " fill="#D8D8D8" transform="translate(593,960)"/>
<path d="M0 0 C2.125 0.9375 2.125 0.9375 4 2 C3.67 3.32 3.34 4.64 3 6 C1.68 5.67 0.36 5.34 -1 5 C-1.33 3.68 -1.66 2.36 -2 1 C-1.34 0.67 -0.68 0.34 0 0 Z " fill="#CECDCF" transform="translate(568,889)"/>
<path d="M0 0 C0.99 0.33 1.98 0.66 3 1 C1.515 3.475 1.515 3.475 0 6 C-0.99 5.67 -1.98 5.34 -3 5 C-2.625 3.0625 -2.625 3.0625 -2 1 C-1.34 0.67 -0.68 0.34 0 0 Z " fill="#9B9B9B" transform="translate(755,801)"/>
<path d="M0 0 C0.66 0.33 1.32 0.66 2 1 C0.02 3.31 -1.96 5.62 -4 8 C-4.33 7.01 -4.66 6.02 -5 5 C-3.35 3.35 -1.7 1.7 0 0 Z " fill="#CBCBCD" transform="translate(524,717)"/>
<path d="M0 0 C1.32 0.99 2.64 1.98 4 3 C3.34 4.65 2.68 6.3 2 8 C1.01 7.34 0.02 6.68 -1 6 C-1 5.34 -1 4.68 -1 4 C-0.34 4 0.32 4 1 4 C0.67 2.68 0.34 1.36 0 0 Z " fill="#A5A5A5" transform="translate(442,425)"/>
<path d="M0 0 C1.9375 0.3125 1.9375 0.3125 4 1 C4.33 1.99 4.66 2.98 5 4 C4.34 4.66 3.68 5.32 3 6 C1.68 5.01 0.36 4.02 -1 3 C-0.67 2.01 -0.34 1.02 0 0 Z " fill="#989898" transform="translate(795,714)"/>
<path d="M0 0 C2.31 1.65 4.62 3.3 7 5 C6.01 5.99 5.02 6.98 4 8 C0 2.25 0 2.25 0 0 Z " fill="#1C1C1E" transform="translate(369,646)"/>
<path d="M0 0 C1.32 0.33 2.64 0.66 4 1 C3.34 2.65 2.68 4.3 2 6 C1.67 5.34 1.34 4.68 1 4 C0.01 3.67 -0.98 3.34 -2 3 C-1.34 2.01 -0.68 1.02 0 0 Z " fill="#D2D2D2" transform="translate(531,255)"/>
<path d="M0 0 C0 3.62453269 -0.92469613 5.07920195 -3 8 C-3.99 8.33 -4.98 8.66 -6 9 C-4.83857315 4.64464931 -3.92300495 2.35380297 0 0 Z " fill="#D6D6D6" transform="translate(539,244)"/>
<path d="M0 0 C2.475 0.495 2.475 0.495 5 1 C4.34 2.65 3.68 4.3 3 6 C1.5 4.6875 1.5 4.6875 0 3 C0 2.01 0 1.02 0 0 Z " fill="#D6D6D6" transform="translate(619,230)"/>
<path d="M0 0 C2 1.375 2 1.375 4 3 C4 3.66 4 4.32 4 5 C3.01 5.33 2.02 5.66 1 6 C0.34 5.67 -0.32 5.34 -1 5 C-0.67 3.35 -0.34 1.7 0 0 Z " fill="#C4C4C4" transform="translate(574,914)"/>
<path d="M0 0 C1.32 0.99 2.64 1.98 4 3 C3.01 3.99 2.02 4.98 1 6 C0.01 5.67 -0.98 5.34 -2 5 C-1.34 3.35 -0.68 1.7 0 0 Z " fill="#CCCCCC" transform="translate(526,886)"/>
<path d="M0 0 C0.66 0 1.32 0 2 0 C2.33 1.65 2.66 3.3 3 5 C2.34 5 1.68 5 1 5 C1 5.66 1 6.32 1 7 C0.01 6.67 -0.98 6.34 -2 6 C-1.34 4.02 -0.68 2.04 0 0 Z " fill="#9B9B9B" transform="translate(692,868)"/>
<path d="M0 0 C0.99 0.66 1.98 1.32 3 2 C1.69593116 4.01920337 0.36176581 6.01924973 -1 8 C-1.33 8 -1.66 8 -2 8 C-2 6.02 -2 4.04 -2 2 C-1.34 2 -0.68 2 0 2 C0 1.34 0 0.68 0 0 Z " fill="#8F8F8F" transform="translate(731,837)"/>
<path d="M0 0 C0.66 0.33 1.32 0.66 2 1 C2 2.65 2 4.3 2 6 C0.68 5.67 -0.64 5.34 -2 5 C-2 4.01 -2 3.02 -2 2 C-1.34 2 -0.68 2 0 2 C0 1.34 0 0.68 0 0 Z " fill="#A1A1A1" transform="translate(718,834)"/>
<path d="M0 0 C0.99 0.66 1.98 1.32 3 2 C2.67 3.32 2.34 4.64 2 6 C0 4.625 0 4.625 -2 3 C-2 2.34 -2 1.68 -2 1 C-1.34 0.67 -0.68 0.34 0 0 Z " fill="#A6A6A6" transform="translate(455,722)"/>
<path d="M0 0 C0 0.66 0 1.32 0 2 C-0.66 2 -1.32 2 -2 2 C-2 2.66 -2 3.32 -2 4 C-3.98 4 -5.96 4 -8 4 C-3.375 0 -3.375 0 0 0 Z " fill="#C1C1C1" transform="translate(634,646)"/>
<path d="M0 0 C1.5625 1.25 1.5625 1.25 3 3 C2.6875 5.1875 2.6875 5.1875 2 7 C1.34 7 0.68 7 0 7 C-0.38133299 5.0085944 -0.71325582 3.00720923 -1 1 C-0.67 0.67 -0.34 0.34 0 0 Z " fill="#D3D3D3" transform="translate(554,240)"/>
<path d="M0 0 C1.65 0 3.3 0 5 0 C5 1.65 5 3.3 5 5 C4.34 5 3.68 5 3 5 C1 3 1 3 0 0 Z " fill="#DADADA" transform="translate(601,176)"/>
<path d="M0 0 C0.66 0.33 1.32 0.66 2 1 C2 2.98 2 4.96 2 7 C1.67 6.34 1.34 5.68 1 5 C-0.32 5.33 -1.64 5.66 -3 6 C-2.01 4.02 -1.02 2.04 0 0 Z " fill="#A5A5A5" transform="translate(645,938)"/>
<path d="M0 0 C1.89213369 2.38573379 3.02391783 4.07175348 4 7 C1.525 6.01 1.525 6.01 -1 5 C-0.67 3.35 -0.34 1.7 0 0 Z " fill="#D9D9D9" transform="translate(601,918)"/>
<path d="M0 0 C1.32 0 2.64 0 4 0 C4.33 1.98 4.66 3.96 5 6 C3.2925002 4.71937515 1.62626404 3.38232443 0 2 C0 1.34 0 0.68 0 0 Z " fill="#C1C1C1" transform="translate(536,901)"/>
<path d="M0 0 C1.32 1.32 2.64 2.64 4 4 C2.02 4.66 0.04 5.32 -2 6 C-1.34 4.02 -0.68 2.04 0 0 Z " fill="#B6B6B6" transform="translate(558,898)"/>
<path d="M0 0 C0.66 0 1.32 0 2 0 C3.125 3.75 3.125 3.75 2 6 C1.01 5.67 0.02 5.34 -1 5 C-0.67 3.35 -0.34 1.7 0 0 Z " fill="#DEDEDE" transform="translate(586,895)"/>
<path d="M0 0 C0.99 0 1.98 0 3 0 C3.33 1.65 3.66 3.3 4 5 C2.35 5 0.7 5 -1 5 C-0.67 3.35 -0.34 1.7 0 0 Z " fill="#C9C9CD" transform="translate(531,802)"/>
<path d="M0 0 C0.99 0.33 1.98 0.66 3 1 C4.1875 3.5625 4.1875 3.5625 5 6 C3.68 5.67 2.36 5.34 1 5 C0.67 3.35 0.34 1.7 0 0 Z " fill="#7D7D7D" transform="translate(412,722)"/>
<path d="M0 0 C-0.66 1.32 -1.32 2.64 -2 4 C-2.66 4 -3.32 4 -4 4 C-4.66 4.99 -5.32 5.98 -6 7 C-6 5.68 -6 4.36 -6 3 C-2.78571429 0 -2.78571429 0 0 0 Z " fill="#D4D4D4" transform="translate(619,655)"/>
<path d="M0 0 C0.99 0.33 1.98 0.66 3 1 C1.02 2.32 -0.96 3.64 -3 5 C-3.99 4.34 -4.98 3.68 -6 3 C-5 2 -5 2 -2.4375 1.9375 C-1.2309375 1.9684375 -1.2309375 1.9684375 0 2 C0 1.34 0 0.68 0 0 Z " fill="#969696" transform="translate(663,643)"/>
<path d="M0 0 C1.32 0.99 2.64 1.98 4 3 C3.67 3.99 3.34 4.98 3 6 C2.01 5.67 1.02 5.34 0 5 C-0.33 4.01 -0.66 3.02 -1 2 C-0.67 1.34 -0.34 0.68 0 0 Z " fill="#949496" transform="translate(373,624)"/>
<path d="M0 0 C1.32 1.65 2.64 3.3 4 5 C3.01 6.485 3.01 6.485 2 8 C1.34 8 0.68 8 0 8 C0 5.36 0 2.72 0 0 Z " fill="#979797" transform="translate(729,384)"/>
<path d="M0 0 C0.33 0.66 0.66 1.32 1 2 C-0.68474722 5.36949443 -1.8191658 6.87944386 -5 9 C-3.7508258 5.54074837 -2.32472205 2.85306797 0 0 Z " fill="#D0D0D0" transform="translate(491,321)"/>
<path d="M0 0 C1.98 0 3.96 0 6 0 C6.33 0.99 6.66 1.98 7 3 C5.35 3.33 3.7 3.66 2 4 C1.34 2.68 0.68 1.36 0 0 Z " fill="#D2D2D2" transform="translate(624,240)"/>
<path d="M0 0 C0.66 0 1.32 0 2 0 C2.66 1.32 3.32 2.64 4 4 C2.35 4.33 0.7 4.66 -1 5 C-0.67 3.35 -0.34 1.7 0 0 Z " fill="#C4C4C4" transform="translate(633,225)"/>
<path d="M0 0 C1.32 1.65 2.64 3.3 4 5 C3.67 5.66 3.34 6.32 3 7 C2.34 7 1.68 7 1 7 C-1 4 -1 4 -0.625 1.8125 C-0.41875 1.214375 -0.2125 0.61625 0 0 Z " fill="#D2D2D2" transform="translate(611,186)"/>
<path d="M0 0 C0.66 0.66 1.32 1.32 2 2 C1.625 4.125 1.625 4.125 1 6 C-0.32 6.33 -1.64 6.66 -3 7 C-1.125 1.125 -1.125 1.125 0 0 Z " fill="#DBDBDB" transform="translate(582,170)"/>
</svg>
