<?xml version="1.0" standalone="no"?>
<!DOCTYPE svg PUBLIC "-//W3C//DTD SVG 20010904//EN"
 "http://www.w3.org/TR/2001/REC-SVG-20010904/DTD/svg10.dtd">
<svg version="1.0" xmlns="http://www.w3.org/2000/svg"
 width="1150.000000pt" height="1150.000000pt" viewBox="0 0 1150.000000 1150.000000"
 preserveAspectRatio="xMidYMid meet">

<g transform="translate(0.000000,1150.000000) scale(0.100000,-0.100000)"
fill="#000000" stroke="none">
<path d="M5803 9768 c-60 -101 -175 -291 -255 -423 -80 -132 -230 -379 -333
-550 -241 -398 -1010 -1677 -1027 -1709 -7 -13 -34 -59 -61 -101 -26 -42 -44
-81 -41 -87 4 -6 3 -8 -3 -5 -5 3 -18 -8 -28 -26 -18 -31 -18 -31 0 -17 17 14
18 14 6 -8 -7 -13 -17 -20 -24 -16 -7 4 -2 -4 10 -17 13 -15 19 -29 14 -37 -4
-7 -7 -46 -6 -87 0 -41 -3 -75 -7 -75 -4 0 -8 -8 -7 -17 0 -11 3 -13 6 -5 2 6
9 12 15 12 6 0 3 -11 -6 -25 -9 -14 -14 -25 -12 -25 10 0 15 8 659 1070 149
245 381 630 517 855 136 226 318 527 405 670 87 143 169 279 183 303 13 23 27
42 31 42 4 0 38 -143 75 -317 84 -395 517 -2409 591 -2748 48 -223 180 -832
221 -1022 9 -40 13 -77 9 -83 -4 -6 -80 -59 -168 -117 -89 -58 -492 -326 -896
-595 l-733 -489 -142 133 c-77 73 -226 214 -331 313 -320 303 -410 385 -421
385 -7 0 10 -35 20 -42 7 -5 4 -8 -7 -8 -12 0 -16 -4 -10 -12 11 -18 10 -112
-2 -120 -6 -4 -2 -8 9 -8 11 0 16 -5 13 -14 -3 -7 0 -20 6 -27 10 -11 9 -11
-5 0 -10 7 -15 17 -12 22 3 5 -2 6 -11 3 -14 -6 -11 -12 17 -41 18 -18 38 -31
44 -29 6 2 11 -1 10 -7 -1 -12 82 -94 394 -387 91 -85 206 -193 255 -240 l90
-85 260 -440 c209 -355 577 -982 711 -1212 14 -24 22 -43 19 -43 -3 0 -286
281 -629 625 l-624 625 -197 330 c-114 189 -202 327 -208 323 -6 -3 -7 -1 -3
5 6 11 -33 82 -61 110 -7 8 -11 17 -8 22 3 5 1 11 -5 15 -5 3 -15 -5 -22 -19
-6 -14 -15 -26 -19 -26 -9 0 -24 -40 -21 -56 1 -6 -5 -17 -13 -24 -18 -15 -20
1 -3 18 9 9 9 12 0 12 -7 0 -12 -5 -12 -11 0 -8 -5 -8 -15 1 -8 7 -12 16 -9
21 3 5 1 16 -4 25 -8 15 -10 15 -15 0 -5 -11 -3 -15 4 -10 7 4 10 1 7 -7 -3
-8 7 -32 22 -54 15 -22 30 -50 34 -63 4 -12 11 -20 16 -17 4 3 11 -6 14 -20 4
-14 93 -174 199 -355 l192 -330 229 -237 c126 -131 327 -337 445 -458 119
-121 356 -364 526 -540 171 -175 378 -388 460 -473 l150 -154 307 458 c168
253 456 682 639 954 183 272 454 676 602 897 l269 401 9 84 c5 46 45 444 89
884 l80 802 -366 613 c-202 338 -401 673 -444 744 -42 72 -91 153 -108 180
-56 93 -627 1048 -651 1089 -13 23 -58 100 -100 171 -43 72 -124 209 -181 305
-57 96 -171 290 -255 430 -83 140 -171 288 -194 328 -23 39 -46 72 -50 72 -5
0 -58 -82 -118 -182z m867 -1388 c81 -135 403 -672 715 -1195 312 -522 604
-1010 649 -1084 l81 -133 -71 -698 c-39 -383 -73 -702 -75 -708 -2 -6 -240
163 -529 374 l-524 385 -103 477 c-56 262 -123 576 -148 697 -25 121 -61 294
-80 385 -19 91 -100 478 -180 860 -80 382 -191 908 -246 1169 -54 260 -99 476
-99 479 0 6 198 -322 610 -1008z m724 -3611 c308 -227 563 -414 566 -416 2 -2
0 -10 -5 -18 -71 -104 -329 -485 -520 -770 -133 -198 -334 -496 -446 -662
-250 -370 -290 -433 -282 -446 3 -6 1 -7 -5 -4 -6 4 -76 -90 -168 -225 -87
-128 -180 -263 -205 -300 l-46 -68 -129 218 c-70 119 -158 269 -195 332 -36
63 -102 176 -146 250 -72 123 -760 1296 -769 1312 -2 3 258 182 578 396 891
596 1133 762 1131 772 -2 5 3 7 10 5 6 -3 23 4 37 15 14 11 27 20 29 20 2 0
256 -185 565 -411z"/>
<path d="M3975 6734 c-9 -15 -12 -24 -7 -20 6 4 15 -2 21 -11 6 -10 11 -13 11
-7 0 5 -5 15 -12 22 -7 7 -8 12 -2 12 6 0 11 7 11 15 0 20 -2 19 -22 -11z"/>
<path d="M3962 6686 c7 -8 15 -12 17 -11 5 6 -10 25 -20 25 -5 0 -4 -6 3 -14z"/>
<path d="M3929 6655 c-8 -17 -18 -33 -24 -37 -5 -4 -6 -8 -1 -8 6 0 3 -6 -5
-12 -13 -11 -228 -360 -584 -946 -48 -80 -84 -150 -81 -158 6 -15 419 -714
573 -971 44 -73 82 -130 85 -127 3 3 5 -3 4 -13 0 -9 4 -18 11 -18 6 0 15 -4
20 -9 5 -5 3 -6 -4 -2 -20 11 -15 -2 11 -37 14 -18 25 -36 24 -40 0 -5 3 -11
6 -14 3 -4 6 1 6 11 0 9 4 14 10 11 6 -3 7 1 4 10 -4 9 -13 14 -20 11 -10 -4
-14 2 -12 22 1 15 -1 33 -5 39 -5 7 1 10 15 7 13 -2 17 -2 11 2 -18 8 -18 95
0 88 24 -9 18 48 -8 83 -15 18 -22 33 -18 33 4 0 2 4 -5 9 -7 4 -14 14 -16 22
-1 8 -16 39 -34 69 -17 30 -32 59 -32 63 0 5 -4 6 -8 3 -5 -3 -9 0 -9 7 0 7
-35 73 -78 147 -43 74 -80 140 -83 145 -11 19 40 -24 194 -166 23 -21 45 -35
49 -31 4 4 12 7 18 7 7 0 13 17 15 39 3 29 -2 43 -17 58 -12 10 -21 23 -21 29
0 6 11 -3 25 -18 21 -24 26 -26 35 -13 5 8 8 21 5 28 -2 6 1 12 6 12 13 0 -52
78 -65 79 -5 1 1 -11 15 -26 13 -14 17 -22 9 -17 -8 5 -19 9 -25 9 -5 0 -10 9
-10 21 0 25 -24 56 -36 48 -5 -3 -8 0 -7 6 2 6 -93 105 -211 219 l-214 207
125 210 c219 366 258 436 251 447 -3 7 -2 9 2 4 9 -8 65 70 65 91 0 6 4 12 9
12 5 0 13 10 17 22 3 12 13 28 20 36 17 16 18 36 3 64 -7 13 -8 23 -1 30 7 7
10 4 9 -8 -1 -11 3 -18 10 -17 7 2 10 -4 7 -15 -3 -9 2 -6 10 8 18 30 20 40 5
40 -5 0 -7 -5 -3 -12 4 -7 3 -8 -4 -4 -8 5 -12 39 -12 92 0 69 3 84 15 84 12
0 13 3 5 13 -6 6 -17 21 -24 32 -14 19 -15 19 -27 -10z m31 -16 c0 -4 -6 -9
-14 -12 -9 -4 -13 0 -11 11 2 9 4 22 4 27 1 10 21 -15 21 -26z m-60 -273 c0
-3 -4 -8 -10 -11 -5 -3 -10 -1 -10 4 0 6 5 11 10 11 6 0 10 -2 10 -4z m80
-1367 c0 -6 -4 -7 -10 -4 -5 3 -10 11 -10 16 0 6 5 7 10 4 6 -3 10 -11 10 -16z
m-4 -36 c-3 -3 -12 2 -21 10 -8 9 -15 20 -15 26 0 6 9 2 21 -10 11 -11 18 -23
15 -26z m-9 -441 c7 -7 13 -17 13 -22 0 -11 -40 -34 -47 -27 -2 3 5 8 16 12
12 3 21 10 21 14 0 13 -30 35 -37 27 -4 -4 -1 -11 7 -16 9 -6 10 -10 3 -10
-20 0 -25 18 -11 40 8 13 14 16 17 8 2 -7 10 -19 18 -26z m-52 -71 c3 -5 2
-12 -3 -15 -5 -3 -9 1 -9 9 0 17 3 19 12 6z"/>
<path d="M4004 6498 c0 -10 1 -18 3 -18 1 0 7 8 12 18 7 13 6 19 -2 19 -7 0
-13 -9 -13 -19z"/>
<path d="M3930 4839 c0 -19 27 -45 37 -35 3 3 1 6 -6 6 -7 0 -9 5 -6 10 9 15
25 12 25 -6 0 -8 5 -12 10 -9 8 5 8 11 1 19 -6 7 -8 16 -4 19 3 4 -1 7 -10 7
-9 0 -19 -5 -23 -11 -4 -8 -9 -7 -15 2 -7 11 -9 11 -9 -2z"/>
<path d="M4005 4466 c0 -13 2 -22 4 -20 2 2 10 -1 17 -7 10 -8 9 -2 -2 20 -9
17 -16 31 -17 31 -1 0 -2 -11 -2 -24z"/>
<path d="M4006 4388 c3 -5 10 -6 15 -3 13 9 11 12 -6 12 -8 0 -12 -4 -9 -9z"/>
<path d="M3980 4355 c-8 -9 -8 -15 -2 -15 12 0 26 19 19 26 -2 2 -10 -2 -17
-11z"/>
<path d="M4070 4314 c0 -8 5 -12 10 -9 6 3 10 10 10 16 0 5 -4 9 -10 9 -5 0
-10 -7 -10 -16z"/>
</g>
</svg>
